<?xml version="1.0" encoding="UTF-8" standalone="no"?><svg xmlns="http://www.w3.org/2000/svg" xmlns:xlink="http://www.w3.org/1999/xlink" contentStyleType="text/css" height="158px" preserveAspectRatio="none" style="width:146px;height:158px;background:#FFFFFF;" version="1.1" viewBox="0 0 146 158" width="146px" zoomAndPan="magnify"><defs/><g><!--MD5=[9a2897d96cfcc917fe91044b2ccff0ad]
class Employe--><g id="elem_Employe"><rect fill="#F1F1F1" height="42.2969" id="Employe" rx="2.5" ry="2.5" style="stroke:#181818;stroke-width:0.5;" width="65" x="42" y="7"/><text fill="#000000" font-family="sans-serif" font-size="14" lengthAdjust="spacing" textLength="59" x="45" y="24.9951">Employe</text><line style="stroke:#181818;stroke-width:0.5;" x1="43" x2="106" y1="33.2969" y2="33.2969"/><line style="stroke:#181818;stroke-width:0.5;" x1="43" x2="106" y1="41.2969" y2="41.2969"/></g><!--MD5=[453996aa839606c9e0a8dd2f1e73ab72]
class Salaire--><g id="elem_Salaire"><rect fill="#F1F1F1" height="42.2969" id="Salaire" rx="2.5" ry="2.5" style="stroke:#181818;stroke-width:0.5;" width="51" x="7" y="109"/><text fill="#000000" font-family="sans-serif" font-size="14" lengthAdjust="spacing" textLength="45" x="10" y="126.9951">Salaire</text><line style="stroke:#181818;stroke-width:0.5;" x1="8" x2="57" y1="135.2969" y2="135.2969"/><line style="stroke:#181818;stroke-width:0.5;" x1="8" x2="57" y1="143.2969" y2="143.2969"/></g><!--MD5=[b961c445707cacde1d7ec5dc34944cf1]
class projet--><g id="elem_projet"><rect fill="#F1F1F1" height="42.2969" id="projet" rx="2.5" ry="2.5" style="stroke:#181818;stroke-width:0.5;" width="46" x="93.5" y="109"/><text fill="#000000" font-family="sans-serif" font-size="14" lengthAdjust="spacing" textLength="40" x="96.5" y="126.9951">projet</text><line style="stroke:#181818;stroke-width:0.5;" x1="94.5" x2="138.5" y1="135.2969" y2="135.2969"/><line style="stroke:#181818;stroke-width:0.5;" x1="94.5" x2="138.5" y1="143.2969" y2="143.2969"/></g><!--MD5=[0e2069fdc38c29afa5b4dbee1c4d1b8a]
reverse link Employe to Salaire--><g id="link_Employe_Salaire"><path codeLine="1" d="M60.83,61.54 C54.3,77.11 46.68,95.25 40.99,108.79 " fill="none" id="Employe-backto-Salaire" style="stroke:#181818;stroke-width:1.0;"/><polygon fill="#181818" points="66,49.24,59.9902,53.2253,61.3575,60.3056,67.3673,56.3203,66,49.24" style="stroke:#181818;stroke-width:1.0;"/></g><!--MD5=[b04d119226c65a57d87105f73a07b06f]
reverse link Employe to projet--><g id="link_Employe_projet"><path codeLine="2" d="M88.17,61.54 C94.7,77.11 102.32,95.25 108.01,108.79 " fill="none" id="Employe-backto-projet" style="stroke:#181818;stroke-width:1.0;"/><polygon fill="none" points="83,49.24,81.6327,56.3203,87.6425,60.3056,89.0098,53.2253,83,49.24" style="stroke:#181818;stroke-width:1.0;"/></g><!--MD5=[ab22a5e13b38b1f3ca7e605a7b66f85e]
@startuml
Employe *- - Salaire
Employe o- - projet

hide circle
@enduml

PlantUML version 1.2022.12(Sun Oct 23 18:12:26 GMT 2022)
(GPL source distribution)
Java Runtime: OpenJDK Runtime Environment
JVM: OpenJDK 64-Bit Server VM
Default Encoding: UTF-8
Language: en
Country: US
--></g></svg>