<?xml version="1.0" encoding="UTF-8" standalone="no"?><svg xmlns="http://www.w3.org/2000/svg" xmlns:xlink="http://www.w3.org/1999/xlink" contentStyleType="text/css" height="187px" preserveAspectRatio="none" style="width:271px;height:187px;background:#FFFFFF;" version="1.1" viewBox="0 0 271 187" width="271px" zoomAndPan="magnify"><defs/><g><!--class Annee--><g id="elem_Annee"><rect fill="#F1F1F1" height="48" id="Annee" rx="2.5" ry="2.5" style="stroke:#181818;stroke-width:0.5;" width="77" x="18" y="7"/><ellipse cx="33" cy="23" fill="#ADD1B2" rx="11" ry="11" style="stroke:#181818;stroke-width:1.0;"/><path d="M35.9688,28.6406 Q35.3906,28.9375 34.75,29.0781 Q34.1094,29.2344 33.4063,29.2344 Q30.9063,29.2344 29.5781,27.5938 Q28.2656,25.9375 28.2656,22.8125 Q28.2656,19.6875 29.5781,18.0313 Q30.9063,16.375 33.4063,16.375 Q34.1094,16.375 34.75,16.5313 Q35.4063,16.6875 35.9688,16.9844 L35.9688,19.7031 Q35.3438,19.125 34.75,18.8594 Q34.1563,18.5781 33.5313,18.5781 Q32.1875,18.5781 31.5,19.6563 Q30.8125,20.7188 30.8125,22.8125 Q30.8125,24.9063 31.5,25.9844 Q32.1875,27.0469 33.5313,27.0469 Q34.1563,27.0469 34.75,26.7813 Q35.3438,26.5 35.9688,25.9219 L35.9688,28.6406 Z " fill="#000000"/><text fill="#000000" font-family="sans-serif" font-size="14" lengthAdjust="spacing" textLength="45" x="47" y="27.8467">Annee</text><line style="stroke:#181818;stroke-width:0.5;" x1="19" x2="94" y1="39" y2="39"/><line style="stroke:#181818;stroke-width:0.5;" x1="19" x2="94" y1="47" y2="47"/></g><!--class Semestre--><g id="elem_Semestre"><rect fill="#F1F1F1" height="48" id="Semestre" rx="2.5" ry="2.5" style="stroke:#181818;stroke-width:0.5;" width="99" x="7" y="132"/><ellipse cx="22" cy="148" fill="#ADD1B2" rx="11" ry="11" style="stroke:#181818;stroke-width:1.0;"/><path d="M24.9688,153.6406 Q24.3906,153.9375 23.75,154.0781 Q23.1094,154.2344 22.4063,154.2344 Q19.9063,154.2344 18.5781,152.5938 Q17.2656,150.9375 17.2656,147.8125 Q17.2656,144.6875 18.5781,143.0313 Q19.9063,141.375 22.4063,141.375 Q23.1094,141.375 23.75,141.5313 Q24.4063,141.6875 24.9688,141.9844 L24.9688,144.7031 Q24.3438,144.125 23.75,143.8594 Q23.1563,143.5781 22.5313,143.5781 Q21.1875,143.5781 20.5,144.6563 Q19.8125,145.7188 19.8125,147.8125 Q19.8125,149.9063 20.5,150.9844 Q21.1875,152.0469 22.5313,152.0469 Q23.1563,152.0469 23.75,151.7813 Q24.3438,151.5 24.9688,150.9219 L24.9688,153.6406 Z " fill="#000000"/><text fill="#000000" font-family="sans-serif" font-size="14" lengthAdjust="spacing" textLength="67" x="36" y="152.8467">Semestre</text><line style="stroke:#181818;stroke-width:0.5;" x1="8" x2="105" y1="164" y2="164"/><line style="stroke:#181818;stroke-width:0.5;" x1="8" x2="105" y1="172" y2="172"/></g><!--class Classe--><g id="elem_Classe"><rect fill="#F1F1F1" height="48" id="Classe" rx="2.5" ry="2.5" style="stroke:#181818;stroke-width:0.5;" width="78" x="146.5" y="7"/><ellipse cx="161.5" cy="23" fill="#ADD1B2" rx="11" ry="11" style="stroke:#181818;stroke-width:1.0;"/><path d="M164.4688,28.6406 Q163.8906,28.9375 163.25,29.0781 Q162.6094,29.2344 161.9063,29.2344 Q159.4063,29.2344 158.0781,27.5938 Q156.7656,25.9375 156.7656,22.8125 Q156.7656,19.6875 158.0781,18.0313 Q159.4063,16.375 161.9063,16.375 Q162.6094,16.375 163.25,16.5313 Q163.9063,16.6875 164.4688,16.9844 L164.4688,19.7031 Q163.8438,19.125 163.25,18.8594 Q162.6563,18.5781 162.0313,18.5781 Q160.6875,18.5781 160,19.6563 Q159.3125,20.7188 159.3125,22.8125 Q159.3125,24.9063 160,25.9844 Q160.6875,27.0469 162.0313,27.0469 Q162.6563,27.0469 163.25,26.7813 Q163.8438,26.5 164.4688,25.9219 L164.4688,28.6406 Z " fill="#000000"/><text fill="#000000" font-family="sans-serif" font-size="14" lengthAdjust="spacing" textLength="46" x="175.5" y="27.8467">Classe</text><line style="stroke:#181818;stroke-width:0.5;" x1="147.5" x2="223.5" y1="39" y2="39"/><line style="stroke:#181818;stroke-width:0.5;" x1="147.5" x2="223.5" y1="47" y2="47"/></g><!--class Etudiant--><g id="elem_Etudiant"><rect fill="#F1F1F1" height="48" id="Etudiant" rx="2.5" ry="2.5" style="stroke:#181818;stroke-width:0.5;" width="89" x="141" y="132"/><ellipse cx="156" cy="148" fill="#ADD1B2" rx="11" ry="11" style="stroke:#181818;stroke-width:1.0;"/><path d="M158.9688,153.6406 Q158.3906,153.9375 157.75,154.0781 Q157.1094,154.2344 156.4063,154.2344 Q153.9063,154.2344 152.5781,152.5938 Q151.2656,150.9375 151.2656,147.8125 Q151.2656,144.6875 152.5781,143.0313 Q153.9063,141.375 156.4063,141.375 Q157.1094,141.375 157.75,141.5313 Q158.4063,141.6875 158.9688,141.9844 L158.9688,144.7031 Q158.3438,144.125 157.75,143.8594 Q157.1563,143.5781 156.5313,143.5781 Q155.1875,143.5781 154.5,144.6563 Q153.8125,145.7188 153.8125,147.8125 Q153.8125,149.9063 154.5,150.9844 Q155.1875,152.0469 156.5313,152.0469 Q157.1563,152.0469 157.75,151.7813 Q158.3438,151.5 158.9688,150.9219 L158.9688,153.6406 Z " fill="#000000"/><text fill="#000000" font-family="sans-serif" font-size="14" lengthAdjust="spacing" textLength="57" x="170" y="152.8467">Etudiant</text><line style="stroke:#181818;stroke-width:0.5;" x1="142" x2="229" y1="164" y2="164"/><line style="stroke:#181818;stroke-width:0.5;" x1="142" x2="229" y1="172" y2="172"/></g><!--reverse link Annee to Semestre--><g id="link_Annee_Semestre"><path codeLine="1" d="M56.5,69.9 C56.5,90.07 56.5,114.24 56.5,131.66 " fill="none" id="Annee-backto-Semestre" style="stroke:#181818;stroke-width:1.0;"/><polygon fill="#181818" points="56.5,56.94,52.5,62.94,56.5,68.94,60.5,62.94,56.5,56.94" style="stroke:#181818;stroke-width:1.0;"/><text fill="#000000" font-family="sans-serif" font-size="13" lengthAdjust="spacing" textLength="54" x="57.5" y="98.0669">contains</text><text fill="#000000" font-family="sans-serif" font-size="13" lengthAdjust="spacing" textLength="8" x="47.575" y="74.8838">1</text><text fill="#000000" font-family="sans-serif" font-size="13" lengthAdjust="spacing" textLength="36" x="16.1125" y="120.9821">many</text></g><!--reverse link Classe to Etudiant--><g id="link_Classe_Etudiant"><path codeLine="3" d="M185.5,69.9 C185.5,90.07 185.5,114.24 185.5,131.66 " fill="none" id="Classe-backto-Etudiant" style="stroke:#181818;stroke-width:1.0;"/><polygon fill="none" points="185.5,56.94,181.5,62.94,185.5,68.94,189.5,62.94,185.5,56.94" style="stroke:#181818;stroke-width:1.0;"/><text fill="#000000" font-family="sans-serif" font-size="13" lengthAdjust="spacing" textLength="77" x="186.5" y="98.0669">aggregation</text></g><!--SRC=[3Sen2e0m30NGtLDyCWeTNDr4F84d21fAmVv24mTlR-VtDj8Ca4KmfmIfoazmMZMFRbXnDOOM-ZJjZxeRscX7l7THnd3DkLlMA8q_]--></g></svg>