<?xml version="1.0" encoding="UTF-8" standalone="no"?><svg xmlns="http://www.w3.org/2000/svg" xmlns:xlink="http://www.w3.org/1999/xlink" contentStyleType="text/css" height="162px" preserveAspectRatio="none" style="width:391px;height:162px;background:#FFFFFF;" version="1.1" viewBox="0 0 391 162" width="391px" zoomAndPan="magnify"><defs/><g><!--MD5=[01f9a401cf506495089c678bd476f389]
class Avion--><g id="elem_Avion"><rect codeLine="1" fill="#F1F1F1" height="115.1997" id="Avion" rx="2.5" ry="2.5" style="stroke:#181818;stroke-width:0.5;" width="167" x="7" y="24"/><ellipse cx="69.25" cy="40" fill="#ADD1B2" rx="11" ry="11" style="stroke:#181818;stroke-width:1.0;"/><path d="M68.6094,43.7813 Q69.4063,43.7813 69.9688,43.5938 Q70.5469,43.3906 70.7813,43.1719 Q71.0313,42.9375 71.2656,42.75 Q71.5156,42.5469 71.7344,42.5469 Q72.0781,42.5469 72.3281,42.8125 Q72.5938,43.0625 72.5938,43.3906 Q72.5938,44.125 71.4219,44.8125 Q70.2656,45.4844 68.5625,45.4844 Q66.4063,45.4844 64.9844,44.2188 Q63.5625,42.9531 63.5625,41.0156 L63.5625,39.8906 Q63.5625,37.8594 64.8906,36.4844 Q66.2188,35.0938 68.1875,35.0938 Q69.375,35.0938 70.5938,35.6719 L70.7656,35.75 Q71.0625,35.3438 71.4844,35.3438 Q71.9688,35.3438 72.1406,35.6406 Q72.3281,35.9219 72.3281,36.4688 L72.3281,37.8906 Q72.3281,39.0156 71.4844,39.0156 Q71.1719,39.0156 70.9688,38.8438 Q70.7813,38.6719 70.7344,38.5313 Q70.7031,38.375 70.6563,38.1094 Q70.5469,37.5938 70.0313,37.2813 Q69.5156,36.9688 69.0625,36.8906 Q68.625,36.7969 68.25,36.7969 Q66.9688,36.7969 66.1094,37.6719 Q65.2656,38.5469 65.2656,39.8906 L65.2656,40.9844 Q65.2656,42.2656 66.1719,43.0313 Q67.0781,43.7813 68.6094,43.7813 Z " fill="#000000"/><text fill="#000000" font-family="sans-serif" font-size="14" lengthAdjust="spacing" textLength="34" x="89.75" y="45.6">Avion</text><line style="stroke:#181818;stroke-width:0.5;" x1="8" x2="173" y1="56" y2="56"/><rect fill="none" height="6" style="stroke:#C82930;stroke-width:1.0;" width="6" x="15" y="64"/><text fill="#000000" font-family="sans-serif" font-size="14" lengthAdjust="spacing" textLength="110" x="27" y="73.9999">numAvion : String</text><rect fill="none" height="6" style="stroke:#C82930;stroke-width:1.0;" width="6" x="15" y="80.7999"/><text fill="#000000" font-family="sans-serif" font-size="14" lengthAdjust="spacing" textLength="106" x="27" y="90.7999">capacite : integer</text><line style="stroke:#181818;stroke-width:0.5;" x1="8" x2="173" y1="97.5999" y2="97.5999"/><ellipse cx="18" cy="108.5999" fill="#84BE84" rx="3" ry="3" style="stroke:#038048;stroke-width:1.0;"/><text fill="#000000" font-family="sans-serif" font-size="14" lengthAdjust="spacing" textLength="141" x="27" y="115.5998">getNumAvion() : String</text><ellipse cx="18" cy="125.3998" fill="#84BE84" rx="3" ry="3" style="stroke:#038048;stroke-width:1.0;"/><text fill="#000000" font-family="sans-serif" font-size="14" lengthAdjust="spacing" textLength="111" x="27" y="132.3997">getCapacite() : int</text></g><!--MD5=[faefaeeaeee21baa303d48d30d35547c]
class Vol--><g id="elem_Vol"><rect codeLine="8" fill="#F1F1F1" height="148.7996" id="Vol" rx="2.5" ry="2.5" style="stroke:#181818;stroke-width:0.5;" width="175" x="209" y="7"/><ellipse cx="282.75" cy="23" fill="#ADD1B2" rx="11" ry="11" style="stroke:#181818;stroke-width:1.0;"/><path d="M282.1094,26.7813 Q282.9063,26.7813 283.4688,26.5938 Q284.0469,26.3906 284.2813,26.1719 Q284.5313,25.9375 284.7656,25.75 Q285.0156,25.5469 285.2344,25.5469 Q285.5781,25.5469 285.8281,25.8125 Q286.0938,26.0625 286.0938,26.3906 Q286.0938,27.125 284.9219,27.8125 Q283.7656,28.4844 282.0625,28.4844 Q279.9063,28.4844 278.4844,27.2188 Q277.0625,25.9531 277.0625,24.0156 L277.0625,22.8906 Q277.0625,20.8594 278.3906,19.4844 Q279.7188,18.0938 281.6875,18.0938 Q282.875,18.0938 284.0938,18.6719 L284.2656,18.75 Q284.5625,18.3438 284.9844,18.3438 Q285.4688,18.3438 285.6406,18.6406 Q285.8281,18.9219 285.8281,19.4688 L285.8281,20.8906 Q285.8281,22.0156 284.9844,22.0156 Q284.6719,22.0156 284.4688,21.8438 Q284.2813,21.6719 284.2344,21.5313 Q284.2031,21.375 284.1563,21.1094 Q284.0469,20.5938 283.5313,20.2813 Q283.0156,19.9688 282.5625,19.8906 Q282.125,19.7969 281.75,19.7969 Q280.4688,19.7969 279.6094,20.6719 Q278.7656,21.5469 278.7656,22.8906 L278.7656,23.9844 Q278.7656,25.2656 279.6719,26.0313 Q280.5781,26.7813 282.1094,26.7813 Z " fill="#000000"/><text fill="#000000" font-family="sans-serif" font-size="14" lengthAdjust="spacing" textLength="19" x="303.25" y="28.6">Vol</text><line style="stroke:#181818;stroke-width:0.5;" x1="210" x2="383" y1="39" y2="39"/><rect fill="none" height="6" style="stroke:#C82930;stroke-width:1.0;" width="6" x="217" y="47"/><text fill="#000000" font-family="sans-serif" font-size="14" lengthAdjust="spacing" textLength="101" x="229" y="56.9999">numVol : Integer</text><rect fill="none" height="6" style="stroke:#C82930;stroke-width:1.0;" width="6" x="217" y="63.7999"/><text fill="#000000" font-family="sans-serif" font-size="14" lengthAdjust="spacing" textLength="118" x="229" y="73.7999">heureDepart : Date</text><rect fill="none" height="6" style="stroke:#C82930;stroke-width:1.0;" width="6" x="217" y="80.5999"/><text fill="#000000" font-family="sans-serif" font-size="14" lengthAdjust="spacing" textLength="95" x="229" y="90.5998">heureArr : Date</text><line style="stroke:#181818;stroke-width:0.5;" x1="210" x2="383" y1="97.3998" y2="97.3998"/><ellipse cx="220" cy="108.3998" fill="#84BE84" rx="3" ry="3" style="stroke:#038048;stroke-width:1.0;"/><text fill="#000000" font-family="sans-serif" font-size="14" lengthAdjust="spacing" textLength="131" x="229" y="115.3997">getNumVol() : integer</text><ellipse cx="220" cy="125.1997" fill="#84BE84" rx="3" ry="3" style="stroke:#038048;stroke-width:1.0;"/><text fill="#000000" font-family="sans-serif" font-size="14" lengthAdjust="spacing" textLength="149" x="229" y="132.1996">getHeureDepart() : Date</text><ellipse cx="220" cy="141.9996" fill="#84BE84" rx="3" ry="3" style="stroke:#038048;stroke-width:1.0;"/><text fill="#000000" font-family="sans-serif" font-size="14" lengthAdjust="spacing" textLength="138" x="229" y="148.9996">calulerDuree(): integer</text></g><!--MD5=[898ac7e06f5ffeb6d0542b336bffd561]
@startuml
class Avion {
-numAvion : String
-capacite : integer
+getNumAvion() : String
+getCapacite() : int
}

class Vol {
-numVol : Integer
-heureDepart : Date
-heureArr : Date
+getNumVol() : integer
+getHeureDepart() : Date
+calulerDuree(): integer
}
@enduml

PlantUML version 1.2022.5(Sat Apr 30 10:55:52 GMT 2022)
(GPL source distribution)
Java Runtime: OpenJDK Runtime Environment
JVM: OpenJDK 64-Bit Server VM
Default Encoding: UTF-8
Language: en
Country: US
--></g></svg>