<?xml version="1.0" encoding="UTF-8" standalone="no"?><svg xmlns="http://www.w3.org/2000/svg" xmlns:xlink="http://www.w3.org/1999/xlink" contentStyleType="text/css" height="170px" preserveAspectRatio="none" style="width:190px;height:170px;background:#FFFFFF;" version="1.1" viewBox="0 0 190 170" width="190px" zoomAndPan="magnify"><defs/><g><!--MD5=[9a2897d96cfcc917fe91044b2ccff0ad]
class Employe--><g id="elem_Employe"><rect fill="#F1F1F1" height="48" id="Employe" rx="2.5" ry="2.5" style="stroke:#181818;stroke-width:0.5;" width="84" x="55.5" y="7"/><ellipse cx="70.5" cy="23" fill="#ADD1B2" rx="11" ry="11" style="stroke:#181818;stroke-width:1.0;"/><path d="M69.8594,26.7813 Q70.6563,26.7813 71.2188,26.5938 Q71.7969,26.3906 72.0313,26.1719 Q72.2813,25.9375 72.5156,25.75 Q72.7656,25.5469 72.9844,25.5469 Q73.3281,25.5469 73.5781,25.8125 Q73.8438,26.0625 73.8438,26.3906 Q73.8438,27.125 72.6719,27.8125 Q71.5156,28.4844 69.8125,28.4844 Q67.6563,28.4844 66.2344,27.2188 Q64.8125,25.9531 64.8125,24.0156 L64.8125,22.8906 Q64.8125,20.8594 66.1406,19.4844 Q67.4688,18.0938 69.4375,18.0938 Q70.625,18.0938 71.8438,18.6719 L72.0156,18.75 Q72.3125,18.3438 72.7344,18.3438 Q73.2188,18.3438 73.3906,18.6406 Q73.5781,18.9219 73.5781,19.4688 L73.5781,20.8906 Q73.5781,22.0156 72.7344,22.0156 Q72.4219,22.0156 72.2188,21.8438 Q72.0313,21.6719 71.9844,21.5313 Q71.9531,21.375 71.9063,21.1094 Q71.7969,20.5938 71.2813,20.2813 Q70.7656,19.9688 70.3125,19.8906 Q69.875,19.7969 69.5,19.7969 Q68.2188,19.7969 67.3594,20.6719 Q66.5156,21.5469 66.5156,22.8906 L66.5156,23.9844 Q66.5156,25.2656 67.4219,26.0313 Q68.3281,26.7813 69.8594,26.7813 Z " fill="#000000"/><text fill="#000000" font-family="sans-serif" font-size="14" lengthAdjust="spacing" textLength="52" x="84.5" y="28.6">Employe</text><line style="stroke:#181818;stroke-width:0.5;" x1="56.5" x2="138.5" y1="39" y2="39"/><line style="stroke:#181818;stroke-width:0.5;" x1="56.5" x2="138.5" y1="47" y2="47"/></g><!--MD5=[453996aa839606c9e0a8dd2f1e73ab72]
class Salaire--><g id="elem_Salaire"><rect fill="#F1F1F1" height="48" id="Salaire" rx="2.5" ry="2.5" style="stroke:#181818;stroke-width:0.5;" width="75" x="7" y="115"/><ellipse cx="22" cy="131" fill="#ADD1B2" rx="11" ry="11" style="stroke:#181818;stroke-width:1.0;"/><path d="M21.3594,134.7813 Q22.1563,134.7813 22.7188,134.5938 Q23.2969,134.3906 23.5313,134.1719 Q23.7813,133.9375 24.0156,133.75 Q24.2656,133.5469 24.4844,133.5469 Q24.8281,133.5469 25.0781,133.8125 Q25.3438,134.0625 25.3438,134.3906 Q25.3438,135.125 24.1719,135.8125 Q23.0156,136.4844 21.3125,136.4844 Q19.1563,136.4844 17.7344,135.2188 Q16.3125,133.9531 16.3125,132.0156 L16.3125,130.8906 Q16.3125,128.8594 17.6406,127.4844 Q18.9688,126.0938 20.9375,126.0938 Q22.125,126.0938 23.3438,126.6719 L23.5156,126.75 Q23.8125,126.3438 24.2344,126.3438 Q24.7188,126.3438 24.8906,126.6406 Q25.0781,126.9219 25.0781,127.4688 L25.0781,128.8906 Q25.0781,130.0156 24.2344,130.0156 Q23.9219,130.0156 23.7188,129.8438 Q23.5313,129.6719 23.4844,129.5313 Q23.4531,129.375 23.4063,129.1094 Q23.2969,128.5938 22.7813,128.2813 Q22.2656,127.9688 21.8125,127.8906 Q21.375,127.7969 21,127.7969 Q19.7188,127.7969 18.8594,128.6719 Q18.0156,129.5469 18.0156,130.8906 L18.0156,131.9844 Q18.0156,133.2656 18.9219,134.0313 Q19.8281,134.7813 21.3594,134.7813 Z " fill="#000000"/><text fill="#000000" font-family="sans-serif" font-size="14" lengthAdjust="spacing" textLength="43" x="36" y="136.6">Salaire</text><line style="stroke:#181818;stroke-width:0.5;" x1="8" x2="81" y1="147" y2="147"/><line style="stroke:#181818;stroke-width:0.5;" x1="8" x2="81" y1="155" y2="155"/></g><!--MD5=[b961c445707cacde1d7ec5dc34944cf1]
class projet--><g id="elem_projet"><rect fill="#F1F1F1" height="48" id="projet" rx="2.5" ry="2.5" style="stroke:#181818;stroke-width:0.5;" width="66" x="117.5" y="115"/><ellipse cx="132.5" cy="131" fill="#ADD1B2" rx="11" ry="11" style="stroke:#181818;stroke-width:1.0;"/><path d="M131.8594,134.7813 Q132.6563,134.7813 133.2188,134.5938 Q133.7969,134.3906 134.0313,134.1719 Q134.2813,133.9375 134.5156,133.75 Q134.7656,133.5469 134.9844,133.5469 Q135.3281,133.5469 135.5781,133.8125 Q135.8438,134.0625 135.8438,134.3906 Q135.8438,135.125 134.6719,135.8125 Q133.5156,136.4844 131.8125,136.4844 Q129.6563,136.4844 128.2344,135.2188 Q126.8125,133.9531 126.8125,132.0156 L126.8125,130.8906 Q126.8125,128.8594 128.1406,127.4844 Q129.4688,126.0938 131.4375,126.0938 Q132.625,126.0938 133.8438,126.6719 L134.0156,126.75 Q134.3125,126.3438 134.7344,126.3438 Q135.2188,126.3438 135.3906,126.6406 Q135.5781,126.9219 135.5781,127.4688 L135.5781,128.8906 Q135.5781,130.0156 134.7344,130.0156 Q134.4219,130.0156 134.2188,129.8438 Q134.0313,129.6719 133.9844,129.5313 Q133.9531,129.375 133.9063,129.1094 Q133.7969,128.5938 133.2813,128.2813 Q132.7656,127.9688 132.3125,127.8906 Q131.875,127.7969 131.5,127.7969 Q130.2188,127.7969 129.3594,128.6719 Q128.5156,129.5469 128.5156,130.8906 L128.5156,131.9844 Q128.5156,133.2656 129.4219,134.0313 Q130.3281,134.7813 131.8594,134.7813 Z " fill="#000000"/><text fill="#000000" font-family="sans-serif" font-size="14" lengthAdjust="spacing" textLength="34" x="146.5" y="136.6">projet</text><line style="stroke:#181818;stroke-width:0.5;" x1="118.5" x2="182.5" y1="147" y2="147"/><line style="stroke:#181818;stroke-width:0.5;" x1="118.5" x2="182.5" y1="155" y2="155"/></g><!--MD5=[0e2069fdc38c29afa5b4dbee1c4d1b8a]
reverse link Employe to Salaire--><g id="link_Employe_Salaire"><path d="M80.03,66.94 C72.19,82.61 63.16,100.68 56.16,114.68 " fill="none" id="Employe-backto-Salaire" style="stroke:#181818;stroke-width:1.0;"/><polygon fill="#181818" points="86,55,79.739,58.5777,80.6334,65.7331,86.8944,62.1554,86,55" style="stroke:#181818;stroke-width:1.0;"/></g><!--MD5=[b04d119226c65a57d87105f73a07b06f]
reverse link Employe to projet--><g id="link_Employe_projet"><path d="M114.97,66.94 C122.81,82.61 131.84,100.68 138.84,114.68 " fill="none" id="Employe-backto-projet" style="stroke:#181818;stroke-width:1.0;"/><polygon fill="none" points="109,55,108.1056,62.1554,114.3666,65.7331,115.261,58.5777,109,55" style="stroke:#181818;stroke-width:1.0;"/></g><!--MD5=[02904d1f6025fc640c830a67366b095f]
@startuml
Employe *- - Salaire
Employe o- - projet
@enduml

PlantUML version 1.2022.5(Sat Apr 30 10:55:52 GMT 2022)
(GPL source distribution)
Java Runtime: OpenJDK Runtime Environment
JVM: OpenJDK 64-Bit Server VM
Default Encoding: UTF-8
Language: en
Country: US
--></g></svg>