<?xml version="1.0" encoding="UTF-8" standalone="no"?><svg xmlns="http://www.w3.org/2000/svg" xmlns:xlink="http://www.w3.org/1999/xlink" contentStyleType="text/css" height="159px" preserveAspectRatio="none" style="width:174px;height:159px;background:#FFFFFF;" version="1.1" viewBox="0 0 174 159" width="174px" zoomAndPan="magnify"><defs/><g><!--MD5=[6f29c7f2837ec787d698b02a59d7e0ae]
class Forme--><g id="elem_Forme"><rect fill="#F1F1F1" height="42.7999" id="Forme" rx="2.5" ry="2.5" style="stroke:#181818;stroke-width:0.5;" width="44" x="68" y="7"/><text fill="#000000" font-family="sans-serif" font-size="14" lengthAdjust="spacing" textLength="38" x="71" y="25.9999">Forme</text><line style="stroke:#181818;stroke-width:0.5;" x1="69" x2="111" y1="33.7999" y2="33.7999"/><line style="stroke:#181818;stroke-width:0.5;" x1="69" x2="111" y1="41.7999" y2="41.7999"/></g><!--MD5=[b5313cd49da22b0744b541f414f8445e]
class Rectangle--><g id="elem_Rectangle"><rect fill="#F1F1F1" height="42.7999" id="Rectangle" rx="2.5" ry="2.5" style="stroke:#181818;stroke-width:0.5;" width="68" x="7" y="110"/><text fill="#000000" font-family="sans-serif" font-size="14" lengthAdjust="spacing" textLength="62" x="10" y="128.9999">Rectangle</text><line style="stroke:#181818;stroke-width:0.5;" x1="8" x2="74" y1="136.7999" y2="136.7999"/><line style="stroke:#181818;stroke-width:0.5;" x1="8" x2="74" y1="144.7999" y2="144.7999"/></g><!--MD5=[40b067e448d061f8c1f714bff454de58]
class Triangle--><g id="elem_Triangle"><rect fill="#F1F1F1" height="42.7999" id="Triangle" rx="2.5" ry="2.5" style="stroke:#181818;stroke-width:0.5;" width="57" x="110.5" y="110"/><text fill="#000000" font-family="sans-serif" font-size="14" lengthAdjust="spacing" textLength="51" x="113.5" y="128.9999">Triangle</text><line style="stroke:#181818;stroke-width:0.5;" x1="111.5" x2="166.5" y1="136.7999" y2="136.7999"/><line style="stroke:#181818;stroke-width:0.5;" x1="111.5" x2="166.5" y1="144.7999" y2="144.7999"/></g><!--MD5=[df5d2badacb08c56f4897ce3180f7451]
reverse link Forme to Rectangle--><g id="link_Forme_Rectangle"><path codeLine="1" d="M71.09,68.47 C64.23,82.61 56.76,98.02 50.97,109.95 " fill="none" id="Forme-backto-Rectangle" style="stroke:#181818;stroke-width:1.0;"/><polygon fill="none" points="64.82,65.37,79.85,50.43,77.42,71.48,64.82,65.37" style="stroke:#181818;stroke-width:1.0;"/></g><!--MD5=[6923c5bdbec0d2f1689782475336bfb6]
reverse link Forme to Triangle--><g id="link_Forme_Triangle"><path codeLine="2" d="M108.91,68.47 C115.77,82.61 123.24,98.02 129.03,109.95 " fill="none" id="Forme-backto-Triangle" style="stroke:#181818;stroke-width:1.0;"/><polygon fill="none" points="102.58,71.48,100.15,50.43,115.18,65.37,102.58,71.48" style="stroke:#181818;stroke-width:1.0;"/></g><!--MD5=[e0d43bd16eb491fce812116118238353]
@startuml
Forme <|- - Rectangle
Forme <|- - Triangle

hide circle
@enduml

PlantUML version 1.2022.5(Sat Apr 30 10:55:52 GMT 2022)
(GPL source distribution)
Java Runtime: OpenJDK Runtime Environment
JVM: OpenJDK 64-Bit Server VM
Default Encoding: UTF-8
Language: en
Country: US
--></g></svg>