<?xml version="1.0" encoding="UTF-8" standalone="no"?><svg xmlns="http://www.w3.org/2000/svg" xmlns:xlink="http://www.w3.org/1999/xlink" contentStyleType="text/css" height="158px" preserveAspectRatio="none" style="width:146px;height:158px;background:#FFFFFF;" version="1.1" viewBox="0 0 146 158" width="146px" zoomAndPan="magnify"><defs/><g><!--class Employe--><g id="elem_Employe"><rect fill="#F1F1F1" height="42.2969" id="Employe" rx="2.5" ry="2.5" style="stroke:#181818;stroke-width:0.5;" width="65" x="42" y="7"/><text fill="#000000" font-family="sans-serif" font-size="14" lengthAdjust="spacing" textLength="59" x="45" y="24.9951">Employe</text><line style="stroke:#181818;stroke-width:0.5;" x1="43" x2="106" y1="33.2969" y2="33.2969"/><line style="stroke:#181818;stroke-width:0.5;" x1="43" x2="106" y1="41.2969" y2="41.2969"/></g><!--class Salaire--><g id="elem_Salaire"><rect fill="#F1F1F1" height="42.2969" id="Salaire" rx="2.5" ry="2.5" style="stroke:#181818;stroke-width:0.5;" width="51" x="7" y="109"/><text fill="#000000" font-family="sans-serif" font-size="14" lengthAdjust="spacing" textLength="45" x="10" y="126.9951">Salaire</text><line style="stroke:#181818;stroke-width:0.5;" x1="8" x2="57" y1="135.2969" y2="135.2969"/><line style="stroke:#181818;stroke-width:0.5;" x1="8" x2="57" y1="143.2969" y2="143.2969"/></g><!--class projet--><g id="elem_projet"><rect fill="#F1F1F1" height="42.2969" id="projet" rx="2.5" ry="2.5" style="stroke:#181818;stroke-width:0.5;" width="46" x="93.5" y="109"/><text fill="#000000" font-family="sans-serif" font-size="14" lengthAdjust="spacing" textLength="40" x="96.5" y="126.9951">projet</text><line style="stroke:#181818;stroke-width:0.5;" x1="94.5" x2="138.5" y1="135.2969" y2="135.2969"/><line style="stroke:#181818;stroke-width:0.5;" x1="94.5" x2="138.5" y1="143.2969" y2="143.2969"/></g><!--reverse link Employe to Salaire--><g id="link_Employe_Salaire"><path codeLine="1" d="M60.44,62.48 C53.99,77.83 46.56,95.52 40.99,108.79 " fill="none" id="Employe-backto-Salaire" style="stroke:#181818;stroke-width:1.0;"/><polygon fill="#181818" points="65.41,50.63,59.4002,54.6153,60.7675,61.6956,66.7773,57.7103,65.41,50.63" style="stroke:#181818;stroke-width:1.0;"/></g><!--reverse link Employe to projet--><g id="link_Employe_projet"><path codeLine="2" d="M88.56,62.48 C95.01,77.83 102.44,95.52 108.01,108.79 " fill="none" id="Employe-backto-projet" style="stroke:#181818;stroke-width:1.0;"/><polygon fill="none" points="83.59,50.63,82.2227,57.7103,88.2325,61.6956,89.5998,54.6153,83.59,50.63" style="stroke:#181818;stroke-width:1.0;"/></g><!--SRC=[SyqjoCclJ5NGqjLL24xCISmiIkLoXOhb0yKAYlApKakuk38oKr8LaZEBadDI0G00]--></g></svg>