<?xml version="1.0" encoding="UTF-8" standalone="no"?><svg xmlns="http://www.w3.org/2000/svg" xmlns:xlink="http://www.w3.org/1999/xlink" contentStyleType="text/css" height="187px" preserveAspectRatio="none" style="width:248px;height:187px;background:#FFFFFF;" version="1.1" viewBox="0 0 248 187" width="248px" zoomAndPan="magnify"><defs/><g><!--MD5=[5666f6e92f00d6540928055eb69e0983]
class Annee--><g id="elem_Annee"><rect fill="#F1F1F1" height="48" id="Annee" rx="2.5" ry="2.5" style="stroke:#181818;stroke-width:0.5;" width="71" x="16" y="7"/><ellipse cx="31" cy="23" fill="#ADD1B2" rx="11" ry="11" style="stroke:#181818;stroke-width:1.0;"/><path d="M30.3594,26.7813 Q31.1563,26.7813 31.7188,26.5938 Q32.2969,26.3906 32.5313,26.1719 Q32.7813,25.9375 33.0156,25.75 Q33.2656,25.5469 33.4844,25.5469 Q33.8281,25.5469 34.0781,25.8125 Q34.3438,26.0625 34.3438,26.3906 Q34.3438,27.125 33.1719,27.8125 Q32.0156,28.4844 30.3125,28.4844 Q28.1563,28.4844 26.7344,27.2188 Q25.3125,25.9531 25.3125,24.0156 L25.3125,22.8906 Q25.3125,20.8594 26.6406,19.4844 Q27.9688,18.0938 29.9375,18.0938 Q31.125,18.0938 32.3438,18.6719 L32.5156,18.75 Q32.8125,18.3438 33.2344,18.3438 Q33.7188,18.3438 33.8906,18.6406 Q34.0781,18.9219 34.0781,19.4688 L34.0781,20.8906 Q34.0781,22.0156 33.2344,22.0156 Q32.9219,22.0156 32.7188,21.8438 Q32.5313,21.6719 32.4844,21.5313 Q32.4531,21.375 32.4063,21.1094 Q32.2969,20.5938 31.7813,20.2813 Q31.2656,19.9688 30.8125,19.8906 Q30.375,19.7969 30,19.7969 Q28.7188,19.7969 27.8594,20.6719 Q27.0156,21.5469 27.0156,22.8906 L27.0156,23.9844 Q27.0156,25.2656 27.9219,26.0313 Q28.8281,26.7813 30.3594,26.7813 Z " fill="#000000"/><text fill="#000000" font-family="sans-serif" font-size="14" lengthAdjust="spacing" textLength="39" x="45" y="28.6">Annee</text><line style="stroke:#181818;stroke-width:0.5;" x1="17" x2="86" y1="39" y2="39"/><line style="stroke:#181818;stroke-width:0.5;" x1="17" x2="86" y1="47" y2="47"/></g><!--MD5=[d6df57588edd375293a74f5096f8e00d]
class Semestre--><g id="elem_Semestre"><rect fill="#F1F1F1" height="48" id="Semestre" rx="2.5" ry="2.5" style="stroke:#181818;stroke-width:0.5;" width="89" x="7" y="132"/><ellipse cx="22" cy="148" fill="#ADD1B2" rx="11" ry="11" style="stroke:#181818;stroke-width:1.0;"/><path d="M21.3594,151.7813 Q22.1563,151.7813 22.7188,151.5938 Q23.2969,151.3906 23.5313,151.1719 Q23.7813,150.9375 24.0156,150.75 Q24.2656,150.5469 24.4844,150.5469 Q24.8281,150.5469 25.0781,150.8125 Q25.3438,151.0625 25.3438,151.3906 Q25.3438,152.125 24.1719,152.8125 Q23.0156,153.4844 21.3125,153.4844 Q19.1563,153.4844 17.7344,152.2188 Q16.3125,150.9531 16.3125,149.0156 L16.3125,147.8906 Q16.3125,145.8594 17.6406,144.4844 Q18.9688,143.0938 20.9375,143.0938 Q22.125,143.0938 23.3438,143.6719 L23.5156,143.75 Q23.8125,143.3438 24.2344,143.3438 Q24.7188,143.3438 24.8906,143.6406 Q25.0781,143.9219 25.0781,144.4688 L25.0781,145.8906 Q25.0781,147.0156 24.2344,147.0156 Q23.9219,147.0156 23.7188,146.8438 Q23.5313,146.6719 23.4844,146.5313 Q23.4531,146.375 23.4063,146.1094 Q23.2969,145.5938 22.7813,145.2813 Q22.2656,144.9688 21.8125,144.8906 Q21.375,144.7969 21,144.7969 Q19.7188,144.7969 18.8594,145.6719 Q18.0156,146.5469 18.0156,147.8906 L18.0156,148.9844 Q18.0156,150.2656 18.9219,151.0313 Q19.8281,151.7813 21.3594,151.7813 Z " fill="#000000"/><text fill="#000000" font-family="sans-serif" font-size="14" lengthAdjust="spacing" textLength="57" x="36" y="153.6">Semestre</text><line style="stroke:#181818;stroke-width:0.5;" x1="8" x2="95" y1="164" y2="164"/><line style="stroke:#181818;stroke-width:0.5;" x1="8" x2="95" y1="172" y2="172"/></g><!--MD5=[37857588832972fd2293e297ebcf0c33]
class Classe--><g id="elem_Classe"><rect fill="#F1F1F1" height="48" id="Classe" rx="2.5" ry="2.5" style="stroke:#181818;stroke-width:0.5;" width="74" x="135.5" y="7"/><ellipse cx="150.5" cy="23" fill="#ADD1B2" rx="11" ry="11" style="stroke:#181818;stroke-width:1.0;"/><path d="M149.8594,26.7813 Q150.6563,26.7813 151.2188,26.5938 Q151.7969,26.3906 152.0313,26.1719 Q152.2813,25.9375 152.5156,25.75 Q152.7656,25.5469 152.9844,25.5469 Q153.3281,25.5469 153.5781,25.8125 Q153.8438,26.0625 153.8438,26.3906 Q153.8438,27.125 152.6719,27.8125 Q151.5156,28.4844 149.8125,28.4844 Q147.6563,28.4844 146.2344,27.2188 Q144.8125,25.9531 144.8125,24.0156 L144.8125,22.8906 Q144.8125,20.8594 146.1406,19.4844 Q147.4688,18.0938 149.4375,18.0938 Q150.625,18.0938 151.8438,18.6719 L152.0156,18.75 Q152.3125,18.3438 152.7344,18.3438 Q153.2188,18.3438 153.3906,18.6406 Q153.5781,18.9219 153.5781,19.4688 L153.5781,20.8906 Q153.5781,22.0156 152.7344,22.0156 Q152.4219,22.0156 152.2188,21.8438 Q152.0313,21.6719 151.9844,21.5313 Q151.9531,21.375 151.9063,21.1094 Q151.7969,20.5938 151.2813,20.2813 Q150.7656,19.9688 150.3125,19.8906 Q149.875,19.7969 149.5,19.7969 Q148.2188,19.7969 147.3594,20.6719 Q146.5156,21.5469 146.5156,22.8906 L146.5156,23.9844 Q146.5156,25.2656 147.4219,26.0313 Q148.3281,26.7813 149.8594,26.7813 Z " fill="#000000"/><text fill="#000000" font-family="sans-serif" font-size="14" lengthAdjust="spacing" textLength="42" x="164.5" y="28.6">Classe</text><line style="stroke:#181818;stroke-width:0.5;" x1="136.5" x2="208.5" y1="39" y2="39"/><line style="stroke:#181818;stroke-width:0.5;" x1="136.5" x2="208.5" y1="47" y2="47"/></g><!--MD5=[f84e857de5a9ca5678aed72e3e98d0a5]
class Etudiant--><g id="elem_Etudiant"><rect fill="#F1F1F1" height="48" id="Etudiant" rx="2.5" ry="2.5" style="stroke:#181818;stroke-width:0.5;" width="84" x="130.5" y="132"/><ellipse cx="145.5" cy="148" fill="#ADD1B2" rx="11" ry="11" style="stroke:#181818;stroke-width:1.0;"/><path d="M144.8594,151.7813 Q145.6563,151.7813 146.2188,151.5938 Q146.7969,151.3906 147.0313,151.1719 Q147.2813,150.9375 147.5156,150.75 Q147.7656,150.5469 147.9844,150.5469 Q148.3281,150.5469 148.5781,150.8125 Q148.8438,151.0625 148.8438,151.3906 Q148.8438,152.125 147.6719,152.8125 Q146.5156,153.4844 144.8125,153.4844 Q142.6563,153.4844 141.2344,152.2188 Q139.8125,150.9531 139.8125,149.0156 L139.8125,147.8906 Q139.8125,145.8594 141.1406,144.4844 Q142.4688,143.0938 144.4375,143.0938 Q145.625,143.0938 146.8438,143.6719 L147.0156,143.75 Q147.3125,143.3438 147.7344,143.3438 Q148.2188,143.3438 148.3906,143.6406 Q148.5781,143.9219 148.5781,144.4688 L148.5781,145.8906 Q148.5781,147.0156 147.7344,147.0156 Q147.4219,147.0156 147.2188,146.8438 Q147.0313,146.6719 146.9844,146.5313 Q146.9531,146.375 146.9063,146.1094 Q146.7969,145.5938 146.2813,145.2813 Q145.7656,144.9688 145.3125,144.8906 Q144.875,144.7969 144.5,144.7969 Q143.2188,144.7969 142.3594,145.6719 Q141.5156,146.5469 141.5156,147.8906 L141.5156,148.9844 Q141.5156,150.2656 142.4219,151.0313 Q143.3281,151.7813 144.8594,151.7813 Z " fill="#000000"/><text fill="#000000" font-family="sans-serif" font-size="14" lengthAdjust="spacing" textLength="52" x="159.5" y="153.6">Etudiant</text><line style="stroke:#181818;stroke-width:0.5;" x1="131.5" x2="213.5" y1="164" y2="164"/><line style="stroke:#181818;stroke-width:0.5;" x1="131.5" x2="213.5" y1="172" y2="172"/></g><!--MD5=[7b36196297d9ff30bef59db2919486ad]
reverse link Annee to Semestre--><g id="link_Annee_Semestre"><path d="M51.5,68.21 C51.5,88.83 51.5,114.04 51.5,131.97 " fill="none" id="Annee-backto-Semestre" style="stroke:#181818;stroke-width:1.0;"/><polygon fill="#181818" points="51.5,55.14,47.5,61.14,51.5,67.14,55.5,61.14,51.5,55.14" style="stroke:#181818;stroke-width:1.0;"/><text fill="#000000" font-family="sans-serif" font-size="13" lengthAdjust="spacing" textLength="48" x="52.5" y="99">contains</text><text fill="#000000" font-family="sans-serif" font-size="13" lengthAdjust="spacing" textLength="7" x="43.6469" y="75.9254">1</text><text fill="#000000" font-family="sans-serif" font-size="13" lengthAdjust="spacing" textLength="31" x="16.3344" y="121.577">many</text></g><!--MD5=[c1c8eee5bc36d9153a89360a58b3fad9]
reverse link Classe to Etudiant--><g id="link_Classe_Etudiant"><path d="M172.5,68.21 C172.5,88.83 172.5,114.04 172.5,131.97 " fill="none" id="Classe-backto-Etudiant" style="stroke:#181818;stroke-width:1.0;"/><polygon fill="none" points="172.5,55.14,168.5,61.14,172.5,67.14,176.5,61.14,172.5,55.14" style="stroke:#181818;stroke-width:1.0;"/><text fill="#000000" font-family="sans-serif" font-size="13" lengthAdjust="spacing" textLength="67" x="173.5" y="99">aggregation</text></g><!--MD5=[b78404196b4d707f926bc08289579344]
@startuml
Annee  "1" *- - "many" Semestre : contains

Classe o- - Etudiant : aggregation
@enduml

PlantUML version 1.2022.5(Sat Apr 30 10:55:52 GMT 2022)
(GPL source distribution)
Java Runtime: OpenJDK Runtime Environment
JVM: OpenJDK 64-Bit Server VM
Default Encoding: UTF-8
Language: en
Country: US
--></g></svg>