<?xml version="1.0" encoding="us-ascii" standalone="no"?><svg xmlns="http://www.w3.org/2000/svg" xmlns:xlink="http://www.w3.org/1999/xlink" contentStyleType="text/css" height="236px" preserveAspectRatio="none" style="width:278px;height:236px;background:#FFFFFF;" version="1.1" viewBox="0 0 278 236" width="278px" zoomAndPan="magnify"><defs/><g><line style="stroke:#181818;stroke-width:0.5;stroke-dasharray:5.0,5.0;" x1="30" x2="30" y1="36.2969" y2="200.8281"/><line style="stroke:#181818;stroke-width:0.5;stroke-dasharray:5.0,5.0;" x1="142" x2="142" y1="36.2969" y2="200.8281"/><rect fill="#E2E2F0" height="30.2969" rx="2.5" ry="2.5" style="stroke:#181818;stroke-width:0.5;" width="51" x="5" y="5"/><text fill="#000000" font-family="sans-serif" font-size="14" lengthAdjust="spacing" textLength="37" x="12" y="24.9951">client</text><rect fill="#E2E2F0" height="30.2969" rx="2.5" ry="2.5" style="stroke:#181818;stroke-width:0.5;" width="51" x="5" y="199.8281"/><text fill="#000000" font-family="sans-serif" font-size="14" lengthAdjust="spacing" textLength="37" x="12" y="219.8232">client</text><rect fill="#E2E2F0" height="30.2969" rx="2.5" ry="2.5" style="stroke:#181818;stroke-width:0.5;" width="147" x="69" y="5"/><text fill="#000000" font-family="sans-serif" font-size="14" lengthAdjust="spacing" textLength="133" x="76" y="24.9951">serveur_application</text><rect fill="#E2E2F0" height="30.2969" rx="2.5" ry="2.5" style="stroke:#181818;stroke-width:0.5;" width="147" x="69" y="199.8281"/><text fill="#000000" font-family="sans-serif" font-size="14" lengthAdjust="spacing" textLength="133" x="76" y="219.8232">serveur_application</text><rect fill="#EEEEEE" height="3" style="stroke:#EEEEEE;stroke-width:1.0;" width="271" x="0" y="66.8633"/><line style="stroke:#000000;stroke-width:1.0;" x1="0" x2="271" y1="66.8633" y2="66.8633"/><line style="stroke:#000000;stroke-width:1.0;" x1="0" x2="271" y1="69.8633" y2="69.8633"/><rect fill="#EEEEEE" height="23.1328" style="stroke:#000000;stroke-width:2.0;" width="246" x="12.5" y="56.2969"/><text fill="#000000" font-family="sans-serif" font-size="13" font-weight="bold" lengthAdjust="spacing" textLength="227" x="18.5" y="72.3638">Ouverture de la connexion TCP</text><polygon fill="#181818" points="130.5,106.5625,140.5,110.5625,130.5,114.5625,134.5,110.5625" style="stroke:#181818;stroke-width:1.0;"/><line style="stroke:#181818;stroke-width:1.0;stroke-dasharray:2.0,2.0;" x1="30.5" x2="136.5" y1="110.5625" y2="110.5625"/><text fill="#000000" font-family="sans-serif" font-size="13" lengthAdjust="spacing" textLength="86" x="37.5" y="105.4966">requ&#234;te HTTP</text><polygon fill="#181818" points="41.5,135.6953,31.5,139.6953,41.5,143.6953,37.5,139.6953" style="stroke:#181818;stroke-width:1.0;"/><line style="stroke:#181818;stroke-width:1.0;stroke-dasharray:2.0,2.0;" x1="35.5" x2="141.5" y1="139.6953" y2="139.6953"/><text fill="#000000" font-family="sans-serif" font-size="13" lengthAdjust="spacing" textLength="88" x="47.5" y="134.6294">r&#233;ponse HTTP</text><rect fill="#EEEEEE" height="3" style="stroke:#EEEEEE;stroke-width:1.0;" width="271" x="0" y="168.2617"/><line style="stroke:#000000;stroke-width:1.0;" x1="0" x2="271" y1="168.2617" y2="168.2617"/><line style="stroke:#000000;stroke-width:1.0;" x1="0" x2="271" y1="171.2617" y2="171.2617"/><rect fill="#EEEEEE" height="23.1328" style="stroke:#000000;stroke-width:2.0;" width="247" x="12" y="157.6953"/><text fill="#000000" font-family="sans-serif" font-size="13" font-weight="bold" lengthAdjust="spacing" textLength="228" x="18" y="173.7622">fermeture de la connexion TCP</text><!--SRC=[VSwn3S8m40NGtbFS0ba0oJGqTAH8ZqxEXLZOT-Pi1oJ4GB165YEHKYBQh_U_VhvwJgWOuMdoYBtSFLzWm939H65neqgaBNWPQ-5K9z9IbQ0d20XEcEdXXQ4xj62jSS4J5sYQFMJIYQgUCQNW7PPLxK3fLkTF8JXsNMj-cRMxpInyVYVXlF7bmK0QwS-3Bm00]--></g></svg>