<?xml version="1.0" encoding="UTF-8" standalone="no"?><svg xmlns="http://www.w3.org/2000/svg" xmlns:xlink="http://www.w3.org/1999/xlink" contentStyleType="text/css" height="338px" preserveAspectRatio="none" style="width:557px;height:338px;background:#FFFFFF;" version="1.1" viewBox="0 0 557 338" width="557px" zoomAndPan="magnify"><defs/><g><!--MD5=[59b530d44ae785dc18db921986a9c15c]
class Document--><g id="elem_Document"><rect fill="#F1F1F1" height="148.7996" id="Document" rx="2.5" ry="2.5" style="stroke:#181818;stroke-width:0.5;" width="167" x="200" y="7"/><ellipse cx="248.25" cy="23" fill="#ADD1B2" rx="11" ry="11" style="stroke:#181818;stroke-width:1.0;"/><path d="M247.6094,26.7813 Q248.4063,26.7813 248.9688,26.5938 Q249.5469,26.3906 249.7813,26.1719 Q250.0313,25.9375 250.2656,25.75 Q250.5156,25.5469 250.7344,25.5469 Q251.0781,25.5469 251.3281,25.8125 Q251.5938,26.0625 251.5938,26.3906 Q251.5938,27.125 250.4219,27.8125 Q249.2656,28.4844 247.5625,28.4844 Q245.4063,28.4844 243.9844,27.2188 Q242.5625,25.9531 242.5625,24.0156 L242.5625,22.8906 Q242.5625,20.8594 243.8906,19.4844 Q245.2188,18.0938 247.1875,18.0938 Q248.375,18.0938 249.5938,18.6719 L249.7656,18.75 Q250.0625,18.3438 250.4844,18.3438 Q250.9688,18.3438 251.1406,18.6406 Q251.3281,18.9219 251.3281,19.4688 L251.3281,20.8906 Q251.3281,22.0156 250.4844,22.0156 Q250.1719,22.0156 249.9688,21.8438 Q249.7813,21.6719 249.7344,21.5313 Q249.7031,21.375 249.6563,21.1094 Q249.5469,20.5938 249.0313,20.2813 Q248.5156,19.9688 248.0625,19.8906 Q247.625,19.7969 247.25,19.7969 Q245.9688,19.7969 245.1094,20.6719 Q244.2656,21.5469 244.2656,22.8906 L244.2656,23.9844 Q244.2656,25.2656 245.1719,26.0313 Q246.0781,26.7813 247.6094,26.7813 Z " fill="#000000"/><text fill="#000000" font-family="sans-serif" font-size="14" lengthAdjust="spacing" textLength="62" x="268.75" y="28.6">Document</text><line style="stroke:#181818;stroke-width:0.5;" x1="201" x2="366" y1="39" y2="39"/><rect fill="none" height="6" style="stroke:#C82930;stroke-width:1.0;" width="6" x="208" y="47"/><text fill="#000000" font-family="sans-serif" font-size="14" lengthAdjust="spacing" textLength="89" x="220" y="56.9999">auteur : String</text><rect fill="none" height="6" style="stroke:#C82930;stroke-width:1.0;" width="6" x="208" y="63.7999"/><text fill="#000000" font-family="sans-serif" font-size="14" lengthAdjust="spacing" textLength="72" x="220" y="73.7999">titre : String</text><rect fill="none" height="6" style="stroke:#C82930;stroke-width:1.0;" width="6" x="208" y="80.5999"/><text fill="#000000" font-family="sans-serif" font-size="14" lengthAdjust="spacing" textLength="111" x="220" y="90.5998">reference : integer</text><line style="stroke:#181818;stroke-width:0.5;" x1="201" x2="366" y1="97.3998" y2="97.3998"/><ellipse cx="211" cy="108.3998" fill="#84BE84" rx="3" ry="3" style="stroke:#038048;stroke-width:1.0;"/><text fill="#000000" font-family="sans-serif" font-size="14" lengthAdjust="spacing" textLength="122" x="220" y="115.3997">getAuteurl() : String</text><ellipse cx="211" cy="125.1997" fill="#84BE84" rx="3" ry="3" style="stroke:#038048;stroke-width:1.0;"/><text fill="#000000" font-family="sans-serif" font-size="14" lengthAdjust="spacing" textLength="106" x="220" y="132.1996">getTitre() : String</text><ellipse cx="211" cy="141.9996" fill="#84BE84" rx="3" ry="3" style="stroke:#038048;stroke-width:1.0;"/><text fill="#000000" font-family="sans-serif" font-size="14" lengthAdjust="spacing" textLength="141" x="220" y="148.9996">getReference(): integer</text></g><!--MD5=[e6c689e0fb2094b6e7ddc8286563ae4c]
class Livre--><g id="elem_Livre"><rect fill="#F1F1F1" height="115.1997" id="Livre" rx="2.5" ry="2.5" style="stroke:#181818;stroke-width:0.5;" width="167" x="7" y="216"/><ellipse cx="71.25" cy="232" fill="#ADD1B2" rx="11" ry="11" style="stroke:#181818;stroke-width:1.0;"/><path d="M70.6094,235.7813 Q71.4063,235.7813 71.9688,235.5938 Q72.5469,235.3906 72.7813,235.1719 Q73.0313,234.9375 73.2656,234.75 Q73.5156,234.5469 73.7344,234.5469 Q74.0781,234.5469 74.3281,234.8125 Q74.5938,235.0625 74.5938,235.3906 Q74.5938,236.125 73.4219,236.8125 Q72.2656,237.4844 70.5625,237.4844 Q68.4063,237.4844 66.9844,236.2188 Q65.5625,234.9531 65.5625,233.0156 L65.5625,231.8906 Q65.5625,229.8594 66.8906,228.4844 Q68.2188,227.0938 70.1875,227.0938 Q71.375,227.0938 72.5938,227.6719 L72.7656,227.75 Q73.0625,227.3438 73.4844,227.3438 Q73.9688,227.3438 74.1406,227.6406 Q74.3281,227.9219 74.3281,228.4688 L74.3281,229.8906 Q74.3281,231.0156 73.4844,231.0156 Q73.1719,231.0156 72.9688,230.8438 Q72.7813,230.6719 72.7344,230.5313 Q72.7031,230.375 72.6563,230.1094 Q72.5469,229.5938 72.0313,229.2813 Q71.5156,228.9688 71.0625,228.8906 Q70.625,228.7969 70.25,228.7969 Q68.9688,228.7969 68.1094,229.6719 Q67.2656,230.5469 67.2656,231.8906 L67.2656,232.9844 Q67.2656,234.2656 68.1719,235.0313 Q69.0781,235.7813 70.6094,235.7813 Z " fill="#000000"/><text fill="#000000" font-family="sans-serif" font-size="14" lengthAdjust="spacing" textLength="30" x="91.75" y="237.6">Livre</text><line style="stroke:#181818;stroke-width:0.5;" x1="8" x2="173" y1="248" y2="248"/><rect fill="none" height="6" style="stroke:#C82930;stroke-width:1.0;" width="6" x="15" y="256"/><text fill="#000000" font-family="sans-serif" font-size="14" lengthAdjust="spacing" textLength="119" x="27" y="265.9999">nbrePage : interger</text><rect fill="none" height="6" style="stroke:#C82930;stroke-width:1.0;" width="6" x="15" y="272.7999"/><text fill="#000000" font-family="sans-serif" font-size="14" lengthAdjust="spacing" textLength="89" x="27" y="282.7999">edition : String</text><line style="stroke:#181818;stroke-width:0.5;" x1="8" x2="173" y1="289.5999" y2="289.5999"/><ellipse cx="18" cy="300.5999" fill="#84BE84" rx="3" ry="3" style="stroke:#038048;stroke-width:1.0;"/><text fill="#000000" font-family="sans-serif" font-size="14" lengthAdjust="spacing" textLength="141" x="27" y="307.5998">getNbrePage(): integer</text><ellipse cx="18" cy="317.3998" fill="#84BE84" rx="3" ry="3" style="stroke:#038048;stroke-width:1.0;"/><text fill="#000000" font-family="sans-serif" font-size="14" lengthAdjust="spacing" textLength="116" x="27" y="324.3997">getEdition(): String</text></g><!--MD5=[6d439a513acee906c4f9a2dd4f629010]
class DVD--><g id="elem_DVD"><rect fill="#F1F1F1" height="115.1997" id="DVD" rx="2.5" ry="2.5" style="stroke:#181818;stroke-width:0.5;" width="148" x="209.5" y="216"/><ellipse cx="264.75" cy="232" fill="#ADD1B2" rx="11" ry="11" style="stroke:#181818;stroke-width:1.0;"/><path d="M264.1094,235.7813 Q264.9063,235.7813 265.4688,235.5938 Q266.0469,235.3906 266.2813,235.1719 Q266.5313,234.9375 266.7656,234.75 Q267.0156,234.5469 267.2344,234.5469 Q267.5781,234.5469 267.8281,234.8125 Q268.0938,235.0625 268.0938,235.3906 Q268.0938,236.125 266.9219,236.8125 Q265.7656,237.4844 264.0625,237.4844 Q261.9063,237.4844 260.4844,236.2188 Q259.0625,234.9531 259.0625,233.0156 L259.0625,231.8906 Q259.0625,229.8594 260.3906,228.4844 Q261.7188,227.0938 263.6875,227.0938 Q264.875,227.0938 266.0938,227.6719 L266.2656,227.75 Q266.5625,227.3438 266.9844,227.3438 Q267.4688,227.3438 267.6406,227.6406 Q267.8281,227.9219 267.8281,228.4688 L267.8281,229.8906 Q267.8281,231.0156 266.9844,231.0156 Q266.6719,231.0156 266.4688,230.8438 Q266.2813,230.6719 266.2344,230.5313 Q266.2031,230.375 266.1563,230.1094 Q266.0469,229.5938 265.5313,229.2813 Q265.0156,228.9688 264.5625,228.8906 Q264.125,228.7969 263.75,228.7969 Q262.4688,228.7969 261.6094,229.6719 Q260.7656,230.5469 260.7656,231.8906 L260.7656,232.9844 Q260.7656,234.2656 261.6719,235.0313 Q262.5781,235.7813 264.1094,235.7813 Z " fill="#000000"/><text fill="#000000" font-family="sans-serif" font-size="14" lengthAdjust="spacing" textLength="29" x="285.25" y="237.6">DVD</text><line style="stroke:#181818;stroke-width:0.5;" x1="210.5" x2="356.5" y1="248" y2="248"/><rect fill="none" height="6" style="stroke:#C82930;stroke-width:1.0;" width="6" x="217.5" y="256"/><text fill="#000000" font-family="sans-serif" font-size="14" lengthAdjust="spacing" textLength="94" x="229.5" y="265.9999">duree : interger</text><rect fill="none" height="6" style="stroke:#C82930;stroke-width:1.0;" width="6" x="217.5" y="272.7999"/><text fill="#000000" font-family="sans-serif" font-size="14" lengthAdjust="spacing" textLength="92" x="229.5" y="282.7999">bonus : integer</text><line style="stroke:#181818;stroke-width:0.5;" x1="210.5" x2="356.5" y1="289.5999" y2="289.5999"/><ellipse cx="220.5" cy="300.5999" fill="#84BE84" rx="3" ry="3" style="stroke:#038048;stroke-width:1.0;"/><text fill="#000000" font-family="sans-serif" font-size="14" lengthAdjust="spacing" textLength="120" x="229.5" y="307.5998">getDuree() : integer</text><ellipse cx="220.5" cy="317.3998" fill="#84BE84" rx="3" ry="3" style="stroke:#038048;stroke-width:1.0;"/><text fill="#000000" font-family="sans-serif" font-size="14" lengthAdjust="spacing" textLength="122" x="229.5" y="324.3997">getBonus() : integer</text></g><!--MD5=[35c8b0245acaa9e97c7c37c4368336a3]
class Magazine--><g id="elem_Magazine"><rect fill="#F1F1F1" height="115.1997" id="Magazine" rx="2.5" ry="2.5" style="stroke:#181818;stroke-width:0.5;" width="158" x="392.5" y="216"/><ellipse cx="436.75" cy="232" fill="#ADD1B2" rx="11" ry="11" style="stroke:#181818;stroke-width:1.0;"/><path d="M436.1094,235.7813 Q436.9063,235.7813 437.4688,235.5938 Q438.0469,235.3906 438.2813,235.1719 Q438.5313,234.9375 438.7656,234.75 Q439.0156,234.5469 439.2344,234.5469 Q439.5781,234.5469 439.8281,234.8125 Q440.0938,235.0625 440.0938,235.3906 Q440.0938,236.125 438.9219,236.8125 Q437.7656,237.4844 436.0625,237.4844 Q433.9063,237.4844 432.4844,236.2188 Q431.0625,234.9531 431.0625,233.0156 L431.0625,231.8906 Q431.0625,229.8594 432.3906,228.4844 Q433.7188,227.0938 435.6875,227.0938 Q436.875,227.0938 438.0938,227.6719 L438.2656,227.75 Q438.5625,227.3438 438.9844,227.3438 Q439.4688,227.3438 439.6406,227.6406 Q439.8281,227.9219 439.8281,228.4688 L439.8281,229.8906 Q439.8281,231.0156 438.9844,231.0156 Q438.6719,231.0156 438.4688,230.8438 Q438.2813,230.6719 438.2344,230.5313 Q438.2031,230.375 438.1563,230.1094 Q438.0469,229.5938 437.5313,229.2813 Q437.0156,228.9688 436.5625,228.8906 Q436.125,228.7969 435.75,228.7969 Q434.4688,228.7969 433.6094,229.6719 Q432.7656,230.5469 432.7656,231.8906 L432.7656,232.9844 Q432.7656,234.2656 433.6719,235.0313 Q434.5781,235.7813 436.1094,235.7813 Z " fill="#000000"/><text fill="#000000" font-family="sans-serif" font-size="14" lengthAdjust="spacing" textLength="61" x="457.25" y="237.6">Magazine</text><line style="stroke:#181818;stroke-width:0.5;" x1="393.5" x2="549.5" y1="248" y2="248"/><rect fill="none" height="6" style="stroke:#C82930;stroke-width:1.0;" width="6" x="400.5" y="256"/><text fill="#000000" font-family="sans-serif" font-size="14" lengthAdjust="spacing" textLength="101" x="412.5" y="265.9999">domaine : String</text><rect fill="none" height="6" style="stroke:#C82930;stroke-width:1.0;" width="6" x="400.5" y="272.7999"/><text fill="#000000" font-family="sans-serif" font-size="14" lengthAdjust="spacing" textLength="91" x="412.5" y="282.7999">datePub : date</text><line style="stroke:#181818;stroke-width:0.5;" x1="393.5" x2="549.5" y1="289.5999" y2="289.5999"/><ellipse cx="403.5" cy="300.5999" fill="#84BE84" rx="3" ry="3" style="stroke:#038048;stroke-width:1.0;"/><text fill="#000000" font-family="sans-serif" font-size="14" lengthAdjust="spacing" textLength="132" x="412.5" y="307.5998">getDomaine() : String</text><ellipse cx="403.5" cy="317.3998" fill="#84BE84" rx="3" ry="3" style="stroke:#038048;stroke-width:1.0;"/><text fill="#000000" font-family="sans-serif" font-size="14" lengthAdjust="spacing" textLength="124" x="412.5" y="324.3997">getDatePub() : Date</text></g><!--MD5=[5c205e665c3b6b031a2d91915ebf4e17]
reverse link Document to Livre--><g id="link_Document_Livre"><path d="M194.28,170.33 C178.55,185.82 162.56,201.56 147.99,215.9 " fill="none" id="Document-backto-Livre" style="stroke:#181818;stroke-width:1.0;"/><polygon fill="none" points="189.44,165.27,208.6,156.23,199.26,175.25,189.44,165.27" style="stroke:#181818;stroke-width:1.0;"/></g><!--MD5=[0a6119647cbc8158ae0b43119f8b6360]
reverse link Document to DVD--><g id="link_Document_DVD"><path d="M283.5,176.51 C283.5,189.97 283.5,203.46 283.5,215.9 " fill="none" id="Document-backto-DVD" style="stroke:#181818;stroke-width:1.0;"/><polygon fill="none" points="276.5,176.23,283.5,156.23,290.5,176.23,276.5,176.23" style="stroke:#181818;stroke-width:1.0;"/></g><!--MD5=[5abf9cb3d34310e56606fc364b8ec9d5]
reverse link Document to Magazine--><g id="link_Document_Magazine"><path d="M370.88,170.81 C386.05,186.14 401.45,201.71 415.49,215.9 " fill="none" id="Document-backto-Magazine" style="stroke:#181818;stroke-width:1.0;"/><polygon fill="none" points="365.55,175.37,356.45,156.23,375.5,165.52,365.55,175.37" style="stroke:#181818;stroke-width:1.0;"/></g><!--MD5=[6460059b4d9b7711ec94a020af6b1ae4]
@startuml
Document <|- - Livre
Document <|- - DVD
Document <|- - Magazine

class Document {
-auteur : String
-titre : String
-reference : integer
+getAuteurl() : String
+getTitre() : String
+getReference(): integer
}

class Livre {
-nbrePage : interger
-edition : String
+getNbrePage(): integer
+getEdition(): String
}

class DVD {
-duree : interger
-bonus : integer
+getDuree() : integer
+getBonus() : integer
}

class Magazine {
-domaine : String
-datePub : date
+getDomaine() : String
+getDatePub() : Date
}
@enduml

PlantUML version 1.2022.5(Sat Apr 30 10:55:52 GMT 2022)
(GPL source distribution)
Java Runtime: OpenJDK Runtime Environment
JVM: OpenJDK 64-Bit Server VM
Default Encoding: UTF-8
Language: en
Country: US
--></g></svg>