<?xml version="1.0" encoding="UTF-8" standalone="no"?><svg xmlns="http://www.w3.org/2000/svg" xmlns:xlink="http://www.w3.org/1999/xlink" contentStyleType="text/css" height="291px" preserveAspectRatio="none" style="width:364px;height:291px;background:#FFFFFF;" version="1.1" viewBox="0 0 364 291" width="364px" zoomAndPan="magnify"><defs/><g><rect height="26.7999" style="stroke:#00000000;stroke-width:1.0;fill:none;" width="179" x="91.5" y="10"/><text fill="#000000" font-family="sans-serif" font-size="14" font-weight="bold" lengthAdjust="spacing" textLength="169" x="96.5" y="28.9999">(architecture 3 tiers web)</text><rect fill="#DDDDDD" height="234.6" style="stroke:#181818;stroke-width:0.5;" width="191" x="84" y="43.7999"/><rect fill="#FFFFFF" height="111.6" style="stroke:#181818;stroke-width:1.0;" width="10" x="225.5" y="125.1999"/><line style="stroke:#181818;stroke-width:0.5;stroke-dasharray:5.0,5.0;" x1="28" x2="28" y1="79.5999" y2="284.3999"/><line style="stroke:#181818;stroke-width:0.5;stroke-dasharray:5.0,5.0;" x1="134" x2="134" y1="79.5999" y2="284.3999"/><line style="stroke:#181818;stroke-width:0.5;stroke-dasharray:5.0,5.0;" x1="230" x2="230" y1="79.5999" y2="284.3999"/><line style="stroke:#181818;stroke-width:0.5;stroke-dasharray:5.0,5.0;" x1="335" x2="335" y1="79.5999" y2="284.3999"/><rect fill="#E2E2F0" height="30.7999" rx="2.5" ry="2.5" style="stroke:#181818;stroke-width:0.5;" width="46" x="5" y="47.7999"/><text fill="#000000" font-family="sans-serif" font-size="14" lengthAdjust="spacing" textLength="32" x="12" y="68.7999">client</text><rect fill="#E2E2F0" height="30.7999" rx="2.5" ry="2.5" style="stroke:#181818;stroke-width:0.5;" width="92" x="88" y="47.7999"/><text fill="#000000" font-family="sans-serif" font-size="14" lengthAdjust="spacing" textLength="78" x="95" y="68.7999">serveur_http</text><rect fill="#E2E2F0" height="30.7999" rx="2.5" ry="2.5" style="stroke:#181818;stroke-width:0.5;" width="81" x="190" y="47.7999"/><text fill="#000000" font-family="sans-serif" font-size="14" lengthAdjust="spacing" textLength="67" x="197" y="68.7999">application</text><rect fill="#E2E2F0" height="30.7999" rx="2.5" ry="2.5" style="stroke:#181818;stroke-width:0.5;" width="45" x="313" y="47.7999"/><text fill="#000000" font-family="sans-serif" font-size="14" lengthAdjust="spacing" textLength="31" x="320" y="68.7999">sgbd</text><rect fill="#FFFFFF" height="111.6" style="stroke:#181818;stroke-width:1.0;" width="10" x="225.5" y="125.1999"/><polygon fill="#181818" points="122,107.1999,132,111.1999,122,115.1999,126,111.1999" style="stroke:#181818;stroke-width:1.0;"/><line style="stroke:#181818;stroke-width:1.0;stroke-dasharray:2.0,2.0;" x1="28" x2="128" y1="111.1999" y2="111.1999"/><text fill="#000000" font-family="sans-serif" font-size="13" lengthAdjust="spacing" textLength="80" x="35" y="106.5999">requête HTTP</text><polygon fill="#181818" points="213.5,121.1999,223.5,125.1999,213.5,129.1999,217.5,125.1999" style="stroke:#181818;stroke-width:1.0;"/><line style="stroke:#181818;stroke-width:1.0;stroke-dasharray:2.0,2.0;" x1="134" x2="219.5" y1="125.1999" y2="125.1999"/><line style="stroke:#181818;stroke-width:1.0;" x1="235.5" x2="277.5" y1="139.1999" y2="139.1999"/><line style="stroke:#181818;stroke-width:1.0;" x1="277.5" x2="277.5" y1="139.1999" y2="152.1999"/><line style="stroke:#181818;stroke-width:1.0;" x1="236.5" x2="277.5" y1="152.1999" y2="152.1999"/><polygon fill="#181818" points="246.5,148.1999,236.5,152.1999,246.5,156.1999,242.5,152.1999" style="stroke:#181818;stroke-width:1.0;"/><polygon fill="#181818" points="323.5,177.7999,333.5,181.7999,323.5,185.7999,327.5,181.7999" style="stroke:#181818;stroke-width:1.0;"/><line style="stroke:#181818;stroke-width:1.0;stroke-dasharray:2.0,2.0;" x1="235.5" x2="329.5" y1="181.7999" y2="181.7999"/><text fill="#000000" font-family="sans-serif" font-size="13" lengthAdjust="spacing" textLength="76" x="242.5" y="177.1999">requêtes (x)ql</text><polygon fill="#181818" points="246.5,191.7999,236.5,195.7999,246.5,199.7999,242.5,195.7999" style="stroke:#181818;stroke-width:1.0;"/><line style="stroke:#181818;stroke-width:1.0;stroke-dasharray:2.0,2.0;" x1="240.5" x2="334.5" y1="195.7999" y2="195.7999"/><line style="stroke:#181818;stroke-width:1.0;stroke-dasharray:2.0,2.0;" x1="235.5" x2="277.5" y1="209.7999" y2="209.7999"/><line style="stroke:#181818;stroke-width:1.0;stroke-dasharray:2.0,2.0;" x1="277.5" x2="277.5" y1="209.7999" y2="222.7999"/><line style="stroke:#181818;stroke-width:1.0;stroke-dasharray:2.0,2.0;" x1="236.5" x2="277.5" y1="222.7999" y2="222.7999"/><polygon fill="#181818" points="246.5,218.7999,236.5,222.7999,246.5,226.7999,242.5,222.7999" style="stroke:#181818;stroke-width:1.0;"/><polygon fill="#181818" points="145,232.7999,135,236.7999,145,240.7999,141,236.7999" style="stroke:#181818;stroke-width:1.0;"/><line style="stroke:#181818;stroke-width:1.0;stroke-dasharray:2.0,2.0;" x1="139" x2="229.5" y1="236.7999" y2="236.7999"/><polygon fill="#181818" points="39,262.3999,29,266.3999,39,270.3999,35,266.3999" style="stroke:#181818;stroke-width:1.0;"/><line style="stroke:#181818;stroke-width:1.0;stroke-dasharray:2.0,2.0;" x1="33" x2="133" y1="266.3999" y2="266.3999"/><text fill="#000000" font-family="sans-serif" font-size="13" lengthAdjust="spacing" textLength="82" x="45" y="261.7999">réponse HTTP</text><!--MD5=[79f1e1e445ad2c864eec2f0877e0f94a]
@startuml
skinparam {
shadowing false
monochrome false
}
hide footbox
title (architecture 3 tiers web)

client - -> serveur_http : requête HTTP
box
	participant serveur_http
	participant application
end box

serveur_http  - -> application
activate application
application->application
application - -> sgbd : requêtes (x)ql
application <- - sgbd
application - -> application
application - -> serveur_http
deactivate application
serveur_http  - -> client : réponse HTTP
@enduml

PlantUML version 1.2022.5(Sat Apr 30 10:55:52 GMT 2022)
(GPL source distribution)
Java Runtime: OpenJDK Runtime Environment
JVM: OpenJDK 64-Bit Server VM
Default Encoding: UTF-8
Language: en
Country: US
--></g></svg>