<?xml version="1.0" encoding="UTF-8" standalone="no"?><svg xmlns="http://www.w3.org/2000/svg" xmlns:xlink="http://www.w3.org/1999/xlink" contentStyleType="text/css" height="159px" preserveAspectRatio="none" style="width:138px;height:159px;background:#FFFFFF;" version="1.1" viewBox="0 0 138 159" width="138px" zoomAndPan="magnify"><defs/><g><!--MD5=[9a2897d96cfcc917fe91044b2ccff0ad]
class Employe--><g id="elem_Employe"><rect fill="#F1F1F1" height="42.7999" id="Employe" rx="2.5" ry="2.5" style="stroke:#181818;stroke-width:0.5;" width="58" x="42.5" y="7"/><text fill="#000000" font-family="sans-serif" font-size="14" lengthAdjust="spacing" textLength="52" x="45.5" y="25.9999">Employe</text><line style="stroke:#181818;stroke-width:0.5;" x1="43.5" x2="99.5" y1="33.7999" y2="33.7999"/><line style="stroke:#181818;stroke-width:0.5;" x1="43.5" x2="99.5" y1="41.7999" y2="41.7999"/></g><!--MD5=[453996aa839606c9e0a8dd2f1e73ab72]
class Salaire--><g id="elem_Salaire"><rect fill="#F1F1F1" height="42.7999" id="Salaire" rx="2.5" ry="2.5" style="stroke:#181818;stroke-width:0.5;" width="49" x="7" y="110"/><text fill="#000000" font-family="sans-serif" font-size="14" lengthAdjust="spacing" textLength="43" x="10" y="128.9999">Salaire</text><line style="stroke:#181818;stroke-width:0.5;" x1="8" x2="55" y1="136.7999" y2="136.7999"/><line style="stroke:#181818;stroke-width:0.5;" x1="8" x2="55" y1="144.7999" y2="144.7999"/></g><!--MD5=[b961c445707cacde1d7ec5dc34944cf1]
class projet--><g id="elem_projet"><rect fill="#F1F1F1" height="42.7999" id="projet" rx="2.5" ry="2.5" style="stroke:#181818;stroke-width:0.5;" width="40" x="91.5" y="110"/><text fill="#000000" font-family="sans-serif" font-size="14" lengthAdjust="spacing" textLength="34" x="94.5" y="128.9999">projet</text><line style="stroke:#181818;stroke-width:0.5;" x1="92.5" x2="130.5" y1="136.7999" y2="136.7999"/><line style="stroke:#181818;stroke-width:0.5;" x1="92.5" x2="130.5" y1="144.7999" y2="144.7999"/></g><!--MD5=[0e2069fdc38c29afa5b4dbee1c4d1b8a]
reverse link Employe to Salaire--><g id="link_Employe_Salaire"><path d="M58.32,62.77 C52.16,78.34 45.01,96.39 39.64,109.95 " fill="none" id="Employe-backto-Salaire" style="stroke:#181818;stroke-width:1.0;"/><polygon fill="#181818" points="63.21,50.43,57.2836,54.5383,58.7965,61.5889,64.7229,57.4806,63.21,50.43" style="stroke:#181818;stroke-width:1.0;"/></g><!--MD5=[b04d119226c65a57d87105f73a07b06f]
reverse link Employe to projet--><g id="link_Employe_projet"><path d="M84.68,62.77 C90.84,78.34 97.99,96.39 103.36,109.95 " fill="none" id="Employe-backto-projet" style="stroke:#181818;stroke-width:1.0;"/><polygon fill="none" points="79.79,50.43,78.2771,57.4806,84.2035,61.5889,85.7164,54.5383,79.79,50.43" style="stroke:#181818;stroke-width:1.0;"/></g><!--MD5=[70ff73736e49b7b3f62cb3cc653e015a]
@startuml
Employe *- - Salaire
Employe o- - projet

hide circle
@enduml

PlantUML version 1.2022.5(Sat Apr 30 10:55:52 GMT 2022)
(GPL source distribution)
Java Runtime: OpenJDK Runtime Environment
JVM: OpenJDK 64-Bit Server VM
Default Encoding: UTF-8
Language: en
Country: US
--></g></svg>