<?xml version="1.0" encoding="UTF-8" standalone="no"?><svg xmlns="http://www.w3.org/2000/svg" xmlns:xlink="http://www.w3.org/1999/xlink" contentStyleType="text/css" height="170px" preserveAspectRatio="none" style="width:226px;height:170px;background:#FFFFFF;" version="1.1" viewBox="0 0 226 170" width="226px" zoomAndPan="magnify"><defs/><g><!--MD5=[6f29c7f2837ec787d698b02a59d7e0ae]
class Forme--><g id="elem_Forme"><rect fill="#F1F1F1" height="48" id="Forme" rx="2.5" ry="2.5" style="stroke:#181818;stroke-width:0.5;" width="70" x="81" y="7"/><ellipse cx="96" cy="23" fill="#ADD1B2" rx="11" ry="11" style="stroke:#181818;stroke-width:1.0;"/><path d="M95.3594,26.7813 Q96.1563,26.7813 96.7188,26.5938 Q97.2969,26.3906 97.5313,26.1719 Q97.7813,25.9375 98.0156,25.75 Q98.2656,25.5469 98.4844,25.5469 Q98.8281,25.5469 99.0781,25.8125 Q99.3438,26.0625 99.3438,26.3906 Q99.3438,27.125 98.1719,27.8125 Q97.0156,28.4844 95.3125,28.4844 Q93.1563,28.4844 91.7344,27.2188 Q90.3125,25.9531 90.3125,24.0156 L90.3125,22.8906 Q90.3125,20.8594 91.6406,19.4844 Q92.9688,18.0938 94.9375,18.0938 Q96.125,18.0938 97.3438,18.6719 L97.5156,18.75 Q97.8125,18.3438 98.2344,18.3438 Q98.7188,18.3438 98.8906,18.6406 Q99.0781,18.9219 99.0781,19.4688 L99.0781,20.8906 Q99.0781,22.0156 98.2344,22.0156 Q97.9219,22.0156 97.7188,21.8438 Q97.5313,21.6719 97.4844,21.5313 Q97.4531,21.375 97.4063,21.1094 Q97.2969,20.5938 96.7813,20.2813 Q96.2656,19.9688 95.8125,19.8906 Q95.375,19.7969 95,19.7969 Q93.7188,19.7969 92.8594,20.6719 Q92.0156,21.5469 92.0156,22.8906 L92.0156,23.9844 Q92.0156,25.2656 92.9219,26.0313 Q93.8281,26.7813 95.3594,26.7813 Z " fill="#000000"/><text fill="#000000" font-family="sans-serif" font-size="14" lengthAdjust="spacing" textLength="38" x="110" y="28.6">Forme</text><line style="stroke:#181818;stroke-width:0.5;" x1="82" x2="150" y1="39" y2="39"/><line style="stroke:#181818;stroke-width:0.5;" x1="82" x2="150" y1="47" y2="47"/></g><!--MD5=[b5313cd49da22b0744b541f414f8445e]
class Rectangle--><g id="elem_Rectangle"><rect fill="#F1F1F1" height="48" id="Rectangle" rx="2.5" ry="2.5" style="stroke:#181818;stroke-width:0.5;" width="94" x="7" y="115"/><ellipse cx="22" cy="131" fill="#ADD1B2" rx="11" ry="11" style="stroke:#181818;stroke-width:1.0;"/><path d="M21.3594,134.7813 Q22.1563,134.7813 22.7188,134.5938 Q23.2969,134.3906 23.5313,134.1719 Q23.7813,133.9375 24.0156,133.75 Q24.2656,133.5469 24.4844,133.5469 Q24.8281,133.5469 25.0781,133.8125 Q25.3438,134.0625 25.3438,134.3906 Q25.3438,135.125 24.1719,135.8125 Q23.0156,136.4844 21.3125,136.4844 Q19.1563,136.4844 17.7344,135.2188 Q16.3125,133.9531 16.3125,132.0156 L16.3125,130.8906 Q16.3125,128.8594 17.6406,127.4844 Q18.9688,126.0938 20.9375,126.0938 Q22.125,126.0938 23.3438,126.6719 L23.5156,126.75 Q23.8125,126.3438 24.2344,126.3438 Q24.7188,126.3438 24.8906,126.6406 Q25.0781,126.9219 25.0781,127.4688 L25.0781,128.8906 Q25.0781,130.0156 24.2344,130.0156 Q23.9219,130.0156 23.7188,129.8438 Q23.5313,129.6719 23.4844,129.5313 Q23.4531,129.375 23.4063,129.1094 Q23.2969,128.5938 22.7813,128.2813 Q22.2656,127.9688 21.8125,127.8906 Q21.375,127.7969 21,127.7969 Q19.7188,127.7969 18.8594,128.6719 Q18.0156,129.5469 18.0156,130.8906 L18.0156,131.9844 Q18.0156,133.2656 18.9219,134.0313 Q19.8281,134.7813 21.3594,134.7813 Z " fill="#000000"/><text fill="#000000" font-family="sans-serif" font-size="14" lengthAdjust="spacing" textLength="62" x="36" y="136.6">Rectangle</text><line style="stroke:#181818;stroke-width:0.5;" x1="8" x2="100" y1="147" y2="147"/><line style="stroke:#181818;stroke-width:0.5;" x1="8" x2="100" y1="155" y2="155"/></g><!--MD5=[40b067e448d061f8c1f714bff454de58]
class Triangle--><g id="elem_Triangle"><rect fill="#F1F1F1" height="48" id="Triangle" rx="2.5" ry="2.5" style="stroke:#181818;stroke-width:0.5;" width="83" x="136.5" y="115"/><ellipse cx="151.5" cy="131" fill="#ADD1B2" rx="11" ry="11" style="stroke:#181818;stroke-width:1.0;"/><path d="M150.8594,134.7813 Q151.6563,134.7813 152.2188,134.5938 Q152.7969,134.3906 153.0313,134.1719 Q153.2813,133.9375 153.5156,133.75 Q153.7656,133.5469 153.9844,133.5469 Q154.3281,133.5469 154.5781,133.8125 Q154.8438,134.0625 154.8438,134.3906 Q154.8438,135.125 153.6719,135.8125 Q152.5156,136.4844 150.8125,136.4844 Q148.6563,136.4844 147.2344,135.2188 Q145.8125,133.9531 145.8125,132.0156 L145.8125,130.8906 Q145.8125,128.8594 147.1406,127.4844 Q148.4688,126.0938 150.4375,126.0938 Q151.625,126.0938 152.8438,126.6719 L153.0156,126.75 Q153.3125,126.3438 153.7344,126.3438 Q154.2188,126.3438 154.3906,126.6406 Q154.5781,126.9219 154.5781,127.4688 L154.5781,128.8906 Q154.5781,130.0156 153.7344,130.0156 Q153.4219,130.0156 153.2188,129.8438 Q153.0313,129.6719 152.9844,129.5313 Q152.9531,129.375 152.9063,129.1094 Q152.7969,128.5938 152.2813,128.2813 Q151.7656,127.9688 151.3125,127.8906 Q150.875,127.7969 150.5,127.7969 Q149.2188,127.7969 148.3594,128.6719 Q147.5156,129.5469 147.5156,130.8906 L147.5156,131.9844 Q147.5156,133.2656 148.4219,134.0313 Q149.3281,134.7813 150.8594,134.7813 Z " fill="#000000"/><text fill="#000000" font-family="sans-serif" font-size="14" lengthAdjust="spacing" textLength="51" x="165.5" y="136.6">Triangle</text><line style="stroke:#181818;stroke-width:0.5;" x1="137.5" x2="218.5" y1="147" y2="147"/><line style="stroke:#181818;stroke-width:0.5;" x1="137.5" x2="218.5" y1="155" y2="155"/></g><!--MD5=[df5d2badacb08c56f4897ce3180f7451]
reverse link Forme to Rectangle--><g id="link_Forme_Rectangle"><path codeLine="1" d="M92.25,72.61 C83.92,86.85 74.85,102.35 67.64,114.68 " fill="none" id="Forme-backto-Rectangle" style="stroke:#181818;stroke-width:1.0;"/><polygon fill="none" points="86.41,68.73,102.55,55,98.49,75.8,86.41,68.73" style="stroke:#181818;stroke-width:1.0;"/></g><!--MD5=[6923c5bdbec0d2f1689782475336bfb6]
reverse link Forme to Triangle--><g id="link_Forme_Triangle"><path codeLine="2" d="M139.75,72.61 C148.08,86.85 157.15,102.35 164.36,114.68 " fill="none" id="Forme-backto-Triangle" style="stroke:#181818;stroke-width:1.0;"/><polygon fill="none" points="133.51,75.8,129.45,55,145.59,68.73,133.51,75.8" style="stroke:#181818;stroke-width:1.0;"/></g><!--MD5=[71ea9f926f49da25be47659991ce2708]
@startuml
Forme <|- - Rectangle
Forme <|- - Triangle
@enduml

PlantUML version 1.2022.5(Sat Apr 30 10:55:52 GMT 2022)
(GPL source distribution)
Java Runtime: OpenJDK Runtime Environment
JVM: OpenJDK 64-Bit Server VM
Default Encoding: UTF-8
Language: en
Country: US
--></g></svg>