<?xml version="1.0" encoding="UTF-8" standalone="no"?><svg xmlns="http://www.w3.org/2000/svg" xmlns:xlink="http://www.w3.org/1999/xlink" contentStyleType="text/css" height="187px" preserveAspectRatio="none" style="width:333px;height:187px;background:#FFFFFF;" version="1.1" viewBox="0 0 333 187" width="333px" zoomAndPan="magnify"><defs/><g><!--MD5=[b2f23c4a06b9bc4c947f037f864aea3c]
class Class01--><g id="elem_Class01"><rect fill="#F1F1F1" height="48" id="Class01" rx="2.5" ry="2.5" style="stroke:#181818;stroke-width:0.5;" width="83" x="7" y="7"/><ellipse cx="22" cy="23" fill="#ADD1B2" rx="11" ry="11" style="stroke:#181818;stroke-width:1.0;"/><path d="M21.3594,26.7813 Q22.1563,26.7813 22.7188,26.5938 Q23.2969,26.3906 23.5313,26.1719 Q23.7813,25.9375 24.0156,25.75 Q24.2656,25.5469 24.4844,25.5469 Q24.8281,25.5469 25.0781,25.8125 Q25.3438,26.0625 25.3438,26.3906 Q25.3438,27.125 24.1719,27.8125 Q23.0156,28.4844 21.3125,28.4844 Q19.1563,28.4844 17.7344,27.2188 Q16.3125,25.9531 16.3125,24.0156 L16.3125,22.8906 Q16.3125,20.8594 17.6406,19.4844 Q18.9688,18.0938 20.9375,18.0938 Q22.125,18.0938 23.3438,18.6719 L23.5156,18.75 Q23.8125,18.3438 24.2344,18.3438 Q24.7188,18.3438 24.8906,18.6406 Q25.0781,18.9219 25.0781,19.4688 L25.0781,20.8906 Q25.0781,22.0156 24.2344,22.0156 Q23.9219,22.0156 23.7188,21.8438 Q23.5313,21.6719 23.4844,21.5313 Q23.4531,21.375 23.4063,21.1094 Q23.2969,20.5938 22.7813,20.2813 Q22.2656,19.9688 21.8125,19.8906 Q21.375,19.7969 21,19.7969 Q19.7188,19.7969 18.8594,20.6719 Q18.0156,21.5469 18.0156,22.8906 L18.0156,23.9844 Q18.0156,25.2656 18.9219,26.0313 Q19.8281,26.7813 21.3594,26.7813 Z " fill="#000000"/><text fill="#000000" font-family="sans-serif" font-size="14" lengthAdjust="spacing" textLength="51" x="36" y="28.6">Class01</text><line style="stroke:#181818;stroke-width:0.5;" x1="8" x2="89" y1="39" y2="39"/><line style="stroke:#181818;stroke-width:0.5;" x1="8" x2="89" y1="47" y2="47"/></g><!--MD5=[67b7f66b9c6b27d60ed6d0424460c06c]
class Class02--><g id="elem_Class02"><rect fill="#F1F1F1" height="48" id="Class02" rx="2.5" ry="2.5" style="stroke:#181818;stroke-width:0.5;" width="83" x="7" y="132"/><ellipse cx="22" cy="148" fill="#ADD1B2" rx="11" ry="11" style="stroke:#181818;stroke-width:1.0;"/><path d="M21.3594,151.7813 Q22.1563,151.7813 22.7188,151.5938 Q23.2969,151.3906 23.5313,151.1719 Q23.7813,150.9375 24.0156,150.75 Q24.2656,150.5469 24.4844,150.5469 Q24.8281,150.5469 25.0781,150.8125 Q25.3438,151.0625 25.3438,151.3906 Q25.3438,152.125 24.1719,152.8125 Q23.0156,153.4844 21.3125,153.4844 Q19.1563,153.4844 17.7344,152.2188 Q16.3125,150.9531 16.3125,149.0156 L16.3125,147.8906 Q16.3125,145.8594 17.6406,144.4844 Q18.9688,143.0938 20.9375,143.0938 Q22.125,143.0938 23.3438,143.6719 L23.5156,143.75 Q23.8125,143.3438 24.2344,143.3438 Q24.7188,143.3438 24.8906,143.6406 Q25.0781,143.9219 25.0781,144.4688 L25.0781,145.8906 Q25.0781,147.0156 24.2344,147.0156 Q23.9219,147.0156 23.7188,146.8438 Q23.5313,146.6719 23.4844,146.5313 Q23.4531,146.375 23.4063,146.1094 Q23.2969,145.5938 22.7813,145.2813 Q22.2656,144.9688 21.8125,144.8906 Q21.375,144.7969 21,144.7969 Q19.7188,144.7969 18.8594,145.6719 Q18.0156,146.5469 18.0156,147.8906 L18.0156,148.9844 Q18.0156,150.2656 18.9219,151.0313 Q19.8281,151.7813 21.3594,151.7813 Z " fill="#000000"/><text fill="#000000" font-family="sans-serif" font-size="14" lengthAdjust="spacing" textLength="51" x="36" y="153.6">Class02</text><line style="stroke:#181818;stroke-width:0.5;" x1="8" x2="89" y1="164" y2="164"/><line style="stroke:#181818;stroke-width:0.5;" x1="8" x2="89" y1="172" y2="172"/></g><!--MD5=[e34eefe962fcadefcbf83660cc436420]
class Class03--><g id="elem_Class03"><rect fill="#F1F1F1" height="48" id="Class03" rx="2.5" ry="2.5" style="stroke:#181818;stroke-width:0.5;" width="83" x="125" y="7"/><ellipse cx="140" cy="23" fill="#ADD1B2" rx="11" ry="11" style="stroke:#181818;stroke-width:1.0;"/><path d="M139.3594,26.7813 Q140.1563,26.7813 140.7188,26.5938 Q141.2969,26.3906 141.5313,26.1719 Q141.7813,25.9375 142.0156,25.75 Q142.2656,25.5469 142.4844,25.5469 Q142.8281,25.5469 143.0781,25.8125 Q143.3438,26.0625 143.3438,26.3906 Q143.3438,27.125 142.1719,27.8125 Q141.0156,28.4844 139.3125,28.4844 Q137.1563,28.4844 135.7344,27.2188 Q134.3125,25.9531 134.3125,24.0156 L134.3125,22.8906 Q134.3125,20.8594 135.6406,19.4844 Q136.9688,18.0938 138.9375,18.0938 Q140.125,18.0938 141.3438,18.6719 L141.5156,18.75 Q141.8125,18.3438 142.2344,18.3438 Q142.7188,18.3438 142.8906,18.6406 Q143.0781,18.9219 143.0781,19.4688 L143.0781,20.8906 Q143.0781,22.0156 142.2344,22.0156 Q141.9219,22.0156 141.7188,21.8438 Q141.5313,21.6719 141.4844,21.5313 Q141.4531,21.375 141.4063,21.1094 Q141.2969,20.5938 140.7813,20.2813 Q140.2656,19.9688 139.8125,19.8906 Q139.375,19.7969 139,19.7969 Q137.7188,19.7969 136.8594,20.6719 Q136.0156,21.5469 136.0156,22.8906 L136.0156,23.9844 Q136.0156,25.2656 136.9219,26.0313 Q137.8281,26.7813 139.3594,26.7813 Z " fill="#000000"/><text fill="#000000" font-family="sans-serif" font-size="14" lengthAdjust="spacing" textLength="51" x="154" y="28.6">Class03</text><line style="stroke:#181818;stroke-width:0.5;" x1="126" x2="207" y1="39" y2="39"/><line style="stroke:#181818;stroke-width:0.5;" x1="126" x2="207" y1="47" y2="47"/></g><!--MD5=[d53a23475d458e69a9e37a48405189e2]
class Class04--><g id="elem_Class04"><rect fill="#F1F1F1" height="48" id="Class04" rx="2.5" ry="2.5" style="stroke:#181818;stroke-width:0.5;" width="83" x="125" y="132"/><ellipse cx="140" cy="148" fill="#ADD1B2" rx="11" ry="11" style="stroke:#181818;stroke-width:1.0;"/><path d="M139.3594,151.7813 Q140.1563,151.7813 140.7188,151.5938 Q141.2969,151.3906 141.5313,151.1719 Q141.7813,150.9375 142.0156,150.75 Q142.2656,150.5469 142.4844,150.5469 Q142.8281,150.5469 143.0781,150.8125 Q143.3438,151.0625 143.3438,151.3906 Q143.3438,152.125 142.1719,152.8125 Q141.0156,153.4844 139.3125,153.4844 Q137.1563,153.4844 135.7344,152.2188 Q134.3125,150.9531 134.3125,149.0156 L134.3125,147.8906 Q134.3125,145.8594 135.6406,144.4844 Q136.9688,143.0938 138.9375,143.0938 Q140.125,143.0938 141.3438,143.6719 L141.5156,143.75 Q141.8125,143.3438 142.2344,143.3438 Q142.7188,143.3438 142.8906,143.6406 Q143.0781,143.9219 143.0781,144.4688 L143.0781,145.8906 Q143.0781,147.0156 142.2344,147.0156 Q141.9219,147.0156 141.7188,146.8438 Q141.5313,146.6719 141.4844,146.5313 Q141.4531,146.375 141.4063,146.1094 Q141.2969,145.5938 140.7813,145.2813 Q140.2656,144.9688 139.8125,144.8906 Q139.375,144.7969 139,144.7969 Q137.7188,144.7969 136.8594,145.6719 Q136.0156,146.5469 136.0156,147.8906 L136.0156,148.9844 Q136.0156,150.2656 136.9219,151.0313 Q137.8281,151.7813 139.3594,151.7813 Z " fill="#000000"/><text fill="#000000" font-family="sans-serif" font-size="14" lengthAdjust="spacing" textLength="51" x="154" y="153.6">Class04</text><line style="stroke:#181818;stroke-width:0.5;" x1="126" x2="207" y1="164" y2="164"/><line style="stroke:#181818;stroke-width:0.5;" x1="126" x2="207" y1="172" y2="172"/></g><!--MD5=[21c802bf509ebb275d96eccffaf3e0b6]
class Class05--><g id="elem_Class05"><rect fill="#F1F1F1" height="48" id="Class05" rx="2.5" ry="2.5" style="stroke:#181818;stroke-width:0.5;" width="83" x="243" y="7"/><ellipse cx="258" cy="23" fill="#ADD1B2" rx="11" ry="11" style="stroke:#181818;stroke-width:1.0;"/><path d="M257.3594,26.7813 Q258.1563,26.7813 258.7188,26.5938 Q259.2969,26.3906 259.5313,26.1719 Q259.7813,25.9375 260.0156,25.75 Q260.2656,25.5469 260.4844,25.5469 Q260.8281,25.5469 261.0781,25.8125 Q261.3438,26.0625 261.3438,26.3906 Q261.3438,27.125 260.1719,27.8125 Q259.0156,28.4844 257.3125,28.4844 Q255.1563,28.4844 253.7344,27.2188 Q252.3125,25.9531 252.3125,24.0156 L252.3125,22.8906 Q252.3125,20.8594 253.6406,19.4844 Q254.9688,18.0938 256.9375,18.0938 Q258.125,18.0938 259.3438,18.6719 L259.5156,18.75 Q259.8125,18.3438 260.2344,18.3438 Q260.7188,18.3438 260.8906,18.6406 Q261.0781,18.9219 261.0781,19.4688 L261.0781,20.8906 Q261.0781,22.0156 260.2344,22.0156 Q259.9219,22.0156 259.7188,21.8438 Q259.5313,21.6719 259.4844,21.5313 Q259.4531,21.375 259.4063,21.1094 Q259.2969,20.5938 258.7813,20.2813 Q258.2656,19.9688 257.8125,19.8906 Q257.375,19.7969 257,19.7969 Q255.7188,19.7969 254.8594,20.6719 Q254.0156,21.5469 254.0156,22.8906 L254.0156,23.9844 Q254.0156,25.2656 254.9219,26.0313 Q255.8281,26.7813 257.3594,26.7813 Z " fill="#000000"/><text fill="#000000" font-family="sans-serif" font-size="14" lengthAdjust="spacing" textLength="51" x="272" y="28.6">Class05</text><line style="stroke:#181818;stroke-width:0.5;" x1="244" x2="325" y1="39" y2="39"/><line style="stroke:#181818;stroke-width:0.5;" x1="244" x2="325" y1="47" y2="47"/></g><!--MD5=[247dd373b5711b206209116e093ec52c]
class Class06--><g id="elem_Class06"><rect fill="#F1F1F1" height="48" id="Class06" rx="2.5" ry="2.5" style="stroke:#181818;stroke-width:0.5;" width="83" x="243" y="132"/><ellipse cx="258" cy="148" fill="#ADD1B2" rx="11" ry="11" style="stroke:#181818;stroke-width:1.0;"/><path d="M257.3594,151.7813 Q258.1563,151.7813 258.7188,151.5938 Q259.2969,151.3906 259.5313,151.1719 Q259.7813,150.9375 260.0156,150.75 Q260.2656,150.5469 260.4844,150.5469 Q260.8281,150.5469 261.0781,150.8125 Q261.3438,151.0625 261.3438,151.3906 Q261.3438,152.125 260.1719,152.8125 Q259.0156,153.4844 257.3125,153.4844 Q255.1563,153.4844 253.7344,152.2188 Q252.3125,150.9531 252.3125,149.0156 L252.3125,147.8906 Q252.3125,145.8594 253.6406,144.4844 Q254.9688,143.0938 256.9375,143.0938 Q258.125,143.0938 259.3438,143.6719 L259.5156,143.75 Q259.8125,143.3438 260.2344,143.3438 Q260.7188,143.3438 260.8906,143.6406 Q261.0781,143.9219 261.0781,144.4688 L261.0781,145.8906 Q261.0781,147.0156 260.2344,147.0156 Q259.9219,147.0156 259.7188,146.8438 Q259.5313,146.6719 259.4844,146.5313 Q259.4531,146.375 259.4063,146.1094 Q259.2969,145.5938 258.7813,145.2813 Q258.2656,144.9688 257.8125,144.8906 Q257.375,144.7969 257,144.7969 Q255.7188,144.7969 254.8594,145.6719 Q254.0156,146.5469 254.0156,147.8906 L254.0156,148.9844 Q254.0156,150.2656 254.9219,151.0313 Q255.8281,151.7813 257.3594,151.7813 Z " fill="#000000"/><text fill="#000000" font-family="sans-serif" font-size="14" lengthAdjust="spacing" textLength="51" x="272" y="153.6">Class06</text><line style="stroke:#181818;stroke-width:0.5;" x1="244" x2="325" y1="164" y2="164"/><line style="stroke:#181818;stroke-width:0.5;" x1="244" x2="325" y1="172" y2="172"/></g><!--MD5=[3ab52052fd7925c5f64fca5d41d6866e]
reverse link Class01 to Class02--><g id="link_Class01_Class02"><path d="M48.5,68.21 C48.5,88.83 48.5,114.04 48.5,131.97 " fill="none" id="Class01-backto-Class02" style="stroke:#181818;stroke-width:1.0;"/><polygon fill="#181818" points="48.5,55.14,44.5,61.14,48.5,67.14,52.5,61.14,48.5,55.14" style="stroke:#181818;stroke-width:1.0;"/><text fill="#000000" font-family="sans-serif" font-size="13" lengthAdjust="spacing" textLength="48" x="49.5" y="99">contains</text><text fill="#000000" font-family="sans-serif" font-size="13" lengthAdjust="spacing" textLength="7" x="40.6469" y="75.9254">1</text><text fill="#000000" font-family="sans-serif" font-size="13" lengthAdjust="spacing" textLength="31" x="13.3344" y="121.577">many</text></g><!--MD5=[0815ca07f8d628dc1a46a48ef0cd4c01]
reverse link Class03 to Class04--><g id="link_Class03_Class04"><path d="M166.5,68.21 C166.5,88.83 166.5,114.04 166.5,131.97 " fill="none" id="Class03-backto-Class04" style="stroke:#181818;stroke-width:1.0;"/><polygon fill="none" points="166.5,55.14,162.5,61.14,166.5,67.14,170.5,61.14,166.5,55.14" style="stroke:#181818;stroke-width:1.0;"/><text fill="#000000" font-family="sans-serif" font-size="13" lengthAdjust="spacing" textLength="67" x="167.5" y="99">aggregation</text></g><!--MD5=[ac2e3bbd3e9b11a609828bf89cc0adda]
link Class05 to Class06--><g id="link_Class05_Class06"><path  d="M284.5,55.14 C284.5,75.49 284.5,105.19 284.5,126.91 " fill="none" id="Class05-to-Class06" style="stroke:#181818;stroke-width:1.0;"/><polygon fill="#181818" points="284.5,131.97,288.5,122.97,284.5,126.97,280.5,122.97,284.5,131.97" style="stroke:#181818;stroke-width:1.0;"/><text fill="#000000" font-family="sans-serif" font-size="13" lengthAdjust="spacing" textLength="7" x="276.5594" y="121.577">1</text></g><!--MD5=[07b0ea2d49c4ae2ed7642b2239a5ddd6]
@startuml
Class01 "1" *- - "many" Class02 : contains

Class03 o- - Class04 : aggregation

Class05 - -> "1" Class06
@enduml

PlantUML version 1.2022.5(Sat Apr 30 10:55:52 GMT 2022)
(GPL source distribution)
Java Runtime: OpenJDK Runtime Environment
JVM: OpenJDK 64-Bit Server VM
Default Encoding: UTF-8
Language: en
Country: US
--></g></svg>