<?xml version="1.0" encoding="UTF-8" standalone="no"?><svg xmlns="http://www.w3.org/2000/svg" xmlns:xlink="http://www.w3.org/1999/xlink" contentStyleType="text/css" height="158px" preserveAspectRatio="none" style="width:186px;height:158px;background:#FFFFFF;" version="1.1" viewBox="0 0 186 158" width="186px" zoomAndPan="magnify"><defs/><g><!--MD5=[6f29c7f2837ec787d698b02a59d7e0ae]
class Forme--><g id="elem_Forme"><rect fill="#F1F1F1" height="42.2969" id="Forme" rx="2.5" ry="2.5" style="stroke:#181818;stroke-width:0.5;" width="50" x="72" y="7"/><text fill="#000000" font-family="sans-serif" font-size="14" lengthAdjust="spacing" textLength="44" x="75" y="24.9951">Forme</text><line style="stroke:#181818;stroke-width:0.5;" x1="73" x2="121" y1="33.2969" y2="33.2969"/><line style="stroke:#181818;stroke-width:0.5;" x1="73" x2="121" y1="41.2969" y2="41.2969"/></g><!--MD5=[b5313cd49da22b0744b541f414f8445e]
class Rectangle--><g id="elem_Rectangle"><rect fill="#F1F1F1" height="42.2969" id="Rectangle" rx="2.5" ry="2.5" style="stroke:#181818;stroke-width:0.5;" width="76" x="7" y="109"/><text fill="#000000" font-family="sans-serif" font-size="14" lengthAdjust="spacing" textLength="70" x="10" y="126.9951">Rectangle</text><line style="stroke:#181818;stroke-width:0.5;" x1="8" x2="82" y1="135.2969" y2="135.2969"/><line style="stroke:#181818;stroke-width:0.5;" x1="8" x2="82" y1="143.2969" y2="143.2969"/></g><!--MD5=[40b067e448d061f8c1f714bff454de58]
class Triangle--><g id="elem_Triangle"><rect fill="#F1F1F1" height="42.2969" id="Triangle" rx="2.5" ry="2.5" style="stroke:#181818;stroke-width:0.5;" width="61" x="118.5" y="109"/><text fill="#000000" font-family="sans-serif" font-size="14" lengthAdjust="spacing" textLength="55" x="121.5" y="126.9951">Triangle</text><line style="stroke:#181818;stroke-width:0.5;" x1="119.5" x2="178.5" y1="135.2969" y2="135.2969"/><line style="stroke:#181818;stroke-width:0.5;" x1="119.5" x2="178.5" y1="143.2969" y2="143.2969"/></g><!--MD5=[df5d2badacb08c56f4897ce3180f7451]
reverse link Forme to Rectangle--><g id="link_Forme_Rectangle"><path d="M77.11,67.24 C69.76,81.39 61.71,96.87 55.51,108.79 " fill="none" id="Forme-backto-Rectangle" style="stroke:#181818;stroke-width:1.0;"/><polygon fill="none" points="71.04,63.75,86.48,49.24,83.46,70.21,71.04,63.75" style="stroke:#181818;stroke-width:1.0;"/></g><!--MD5=[6923c5bdbec0d2f1689782475336bfb6]
reverse link Forme to Triangle--><g id="link_Forme_Triangle"><path d="M116.89,67.24 C124.24,81.39 132.29,96.87 138.49,108.79 " fill="none" id="Forme-backto-Triangle" style="stroke:#181818;stroke-width:1.0;"/><polygon fill="none" points="110.54,70.21,107.52,49.24,122.96,63.75,110.54,70.21" style="stroke:#181818;stroke-width:1.0;"/></g><!--MD5=[52cd6248e8ecd7aeda019058466932b1]
@startuml
Forme <|- - Rectangle
Forme <|- - Triangle

hide circle
@enduml

PlantUML version 1.2022.12(Sun Oct 23 18:12:26 GMT 2022)
(GPL source distribution)
Java Runtime: OpenJDK Runtime Environment
JVM: OpenJDK 64-Bit Server VM
Default Encoding: UTF-8
Language: en
Country: US
--></g></svg>