<?xml version="1.0" encoding="us-ascii" standalone="no"?><svg xmlns="http://www.w3.org/2000/svg" xmlns:xlink="http://www.w3.org/1999/xlink" contentStyleType="text/css" height="158px" preserveAspectRatio="none" style="width:145px;height:158px;background:#FFFFFF;" version="1.1" viewBox="0 0 145 158" width="145px" zoomAndPan="magnify"><defs/><g><!--class Employe--><g id="elem_Employe"><rect fill="#F1F1F1" height="42.2969" id="Employe" rx="2.5" ry="2.5" style="stroke:#181818;stroke-width:0.5;" width="65" x="41" y="7"/><text fill="#000000" font-family="sans-serif" font-size="14" lengthAdjust="spacing" textLength="59" x="44" y="24.9951">Employe</text><line style="stroke:#181818;stroke-width:0.5;" x1="42" x2="105" y1="33.2969" y2="33.2969"/><line style="stroke:#181818;stroke-width:0.5;" x1="42" x2="105" y1="41.2969" y2="41.2969"/></g><!--class Salaire--><g id="elem_Salaire"><rect fill="#F1F1F1" height="42.2969" id="Salaire" rx="2.5" ry="2.5" style="stroke:#181818;stroke-width:0.5;" width="51" x="7" y="109.29"/><text fill="#000000" font-family="sans-serif" font-size="14" lengthAdjust="spacing" textLength="45" x="10" y="127.2851">Salaire</text><line style="stroke:#181818;stroke-width:0.5;" x1="8" x2="57" y1="135.5869" y2="135.5869"/><line style="stroke:#181818;stroke-width:0.5;" x1="8" x2="57" y1="143.5869" y2="143.5869"/></g><!--class projet--><g id="elem_projet"><rect fill="#F1F1F1" height="42.2969" id="projet" rx="2.5" ry="2.5" style="stroke:#181818;stroke-width:0.5;" width="46" x="92.5" y="109.29"/><text fill="#000000" font-family="sans-serif" font-size="14" lengthAdjust="spacing" textLength="40" x="95.5" y="127.2851">projet</text><line style="stroke:#181818;stroke-width:0.5;" x1="93.5" x2="137.5" y1="135.5869" y2="135.5869"/><line style="stroke:#181818;stroke-width:0.5;" x1="93.5" x2="137.5" y1="143.5869" y2="143.5869"/></g><!--reverse link Employe to Salaire--><g id="link_Employe_Salaire"><path codeLine="1" d="M60,62.16 C53.71,77.55 46.42,95.39 40.93,108.83 " fill="none" id="Employe-backto-Salaire" style="stroke:#181818;stroke-width:1.0;"/><polygon fill="#181818" points="65.2,50.44,59.2255,54.4779,60.6549,61.5459,66.6294,57.508,65.2,50.44" style="stroke:#181818;stroke-width:1.0;"/></g><!--reverse link Employe to projet--><g id="link_Employe_projet"><path codeLine="2" d="M87.33,62.16 C93.77,77.55 101.24,95.39 106.87,108.83 " fill="none" id="Employe-backto-projet" style="stroke:#181818;stroke-width:1.0;"/><polygon fill="none" points="82,50.44,80.6297,57.5197,86.6378,61.5075,88.0081,54.4278,82,50.44" style="stroke:#181818;stroke-width:1.0;"/></g><!--SRC=[SyqjoCclJ5NGqjLL24xCISmiIkLoXOhb0yKAYlApKakuk38oKr8LaZEBadDI0G00]--></g></svg>