<?xml version="1.0" encoding="UTF-8" standalone="no"?><svg xmlns="http://www.w3.org/2000/svg" xmlns:xlink="http://www.w3.org/1999/xlink" contentStyleType="text/css" height="321px" preserveAspectRatio="none" style="width:609px;height:321px;background:#FFFFFF;" version="1.1" viewBox="0 0 609 321" width="609px" zoomAndPan="magnify"><defs/><g><!--class Document--><g id="elem_Document"><rect codeLine="5" fill="#F1F1F1" height="140.0781" id="Document" rx="2.5" ry="2.5" style="stroke:#181818;stroke-width:0.5;" width="189" x="216" y="7"/><text fill="#000000" font-family="sans-serif" font-size="14" lengthAdjust="spacing" textLength="73" x="274" y="24.9951">Document</text><line style="stroke:#181818;stroke-width:0.5;" x1="217" x2="404" y1="33.2969" y2="33.2969"/><rect fill="none" height="6" style="stroke:#C82930;stroke-width:1.0;" width="6" x="224" y="43.9453"/><text fill="#000000" font-family="sans-serif" font-size="14" lengthAdjust="spacing" textLength="98" x="236" y="50.292">auteur : String</text><rect fill="none" height="6" style="stroke:#C82930;stroke-width:1.0;" width="6" x="224" y="60.2422"/><text fill="#000000" font-family="sans-serif" font-size="14" lengthAdjust="spacing" textLength="80" x="236" y="66.5889">titre : String</text><rect fill="none" height="6" style="stroke:#C82930;stroke-width:1.0;" width="6" x="224" y="76.5391"/><text fill="#000000" font-family="sans-serif" font-size="14" lengthAdjust="spacing" textLength="129" x="236" y="82.8857">reference : integer</text><line style="stroke:#181818;stroke-width:0.5;" x1="217" x2="404" y1="90.1875" y2="90.1875"/><ellipse cx="227" cy="103.8359" fill="#84BE84" rx="3" ry="3" style="stroke:#038048;stroke-width:1.0;"/><text fill="#000000" font-family="sans-serif" font-size="14" lengthAdjust="spacing" textLength="135" x="236" y="107.1826">getAuteurl() : String</text><ellipse cx="227" cy="120.1328" fill="#84BE84" rx="3" ry="3" style="stroke:#038048;stroke-width:1.0;"/><text fill="#000000" font-family="sans-serif" font-size="14" lengthAdjust="spacing" textLength="117" x="236" y="123.4795">getTitre() : String</text><ellipse cx="227" cy="136.4297" fill="#84BE84" rx="3" ry="3" style="stroke:#038048;stroke-width:1.0;"/><text fill="#000000" font-family="sans-serif" font-size="14" lengthAdjust="spacing" textLength="163" x="236" y="139.7764">getReference(): integer</text></g><!--class Livre--><g id="elem_Livre"><rect codeLine="14" fill="#F1F1F1" height="107.4844" id="Livre" rx="2.5" ry="2.5" style="stroke:#181818;stroke-width:0.5;" width="185" x="7" y="207"/><text fill="#000000" font-family="sans-serif" font-size="14" lengthAdjust="spacing" textLength="31" x="84" y="224.9951">Livre</text><line style="stroke:#181818;stroke-width:0.5;" x1="8" x2="191" y1="233.2969" y2="233.2969"/><rect fill="none" height="6" style="stroke:#C82930;stroke-width:1.0;" width="6" x="15" y="243.9453"/><text fill="#000000" font-family="sans-serif" font-size="14" lengthAdjust="spacing" textLength="134" x="27" y="250.292">nbrePage : interger</text><rect fill="none" height="6" style="stroke:#C82930;stroke-width:1.0;" width="6" x="15" y="260.2422"/><text fill="#000000" font-family="sans-serif" font-size="14" lengthAdjust="spacing" textLength="100" x="27" y="266.5889">edition : String</text><line style="stroke:#181818;stroke-width:0.5;" x1="8" x2="191" y1="273.8906" y2="273.8906"/><ellipse cx="18" cy="287.5391" fill="#84BE84" rx="3" ry="3" style="stroke:#038048;stroke-width:1.0;"/><text fill="#000000" font-family="sans-serif" font-size="14" lengthAdjust="spacing" textLength="159" x="27" y="290.8857">getNbrePage(): integer</text><ellipse cx="18" cy="303.8359" fill="#84BE84" rx="3" ry="3" style="stroke:#038048;stroke-width:1.0;"/><text fill="#000000" font-family="sans-serif" font-size="14" lengthAdjust="spacing" textLength="129" x="27" y="307.1826">getEdition(): String</text></g><!--class DVD--><g id="elem_DVD"><rect codeLine="21" fill="#F1F1F1" height="107.4844" id="DVD" rx="2.5" ry="2.5" style="stroke:#181818;stroke-width:0.5;" width="166" x="227.5" y="207"/><text fill="#000000" font-family="sans-serif" font-size="14" lengthAdjust="spacing" textLength="31" x="295" y="224.9951">DVD</text><line style="stroke:#181818;stroke-width:0.5;" x1="228.5" x2="392.5" y1="233.2969" y2="233.2969"/><rect fill="none" height="6" style="stroke:#C82930;stroke-width:1.0;" width="6" x="235.5" y="243.9453"/><text fill="#000000" font-family="sans-serif" font-size="14" lengthAdjust="spacing" textLength="108" x="247.5" y="250.292">duree : interger</text><rect fill="none" height="6" style="stroke:#C82930;stroke-width:1.0;" width="6" x="235.5" y="260.2422"/><text fill="#000000" font-family="sans-serif" font-size="14" lengthAdjust="spacing" textLength="106" x="247.5" y="266.5889">bonus : integer</text><line style="stroke:#181818;stroke-width:0.5;" x1="228.5" x2="392.5" y1="273.8906" y2="273.8906"/><ellipse cx="238.5" cy="287.5391" fill="#84BE84" rx="3" ry="3" style="stroke:#038048;stroke-width:1.0;"/><text fill="#000000" font-family="sans-serif" font-size="14" lengthAdjust="spacing" textLength="138" x="247.5" y="290.8857">getDuree() : integer</text><ellipse cx="238.5" cy="303.8359" fill="#84BE84" rx="3" ry="3" style="stroke:#038048;stroke-width:1.0;"/><text fill="#000000" font-family="sans-serif" font-size="14" lengthAdjust="spacing" textLength="140" x="247.5" y="307.1826">getBonus() : integer</text></g><!--class Magazine--><g id="elem_Magazine"><rect codeLine="28" fill="#F1F1F1" height="107.4844" id="Magazine" rx="2.5" ry="2.5" style="stroke:#181818;stroke-width:0.5;" width="174" x="428.5" y="207"/><text fill="#000000" font-family="sans-serif" font-size="14" lengthAdjust="spacing" textLength="66" x="482.5" y="224.9951">Magazine</text><line style="stroke:#181818;stroke-width:0.5;" x1="429.5" x2="601.5" y1="233.2969" y2="233.2969"/><rect fill="none" height="6" style="stroke:#C82930;stroke-width:1.0;" width="6" x="436.5" y="243.9453"/><text fill="#000000" font-family="sans-serif" font-size="14" lengthAdjust="spacing" textLength="113" x="448.5" y="250.292">domaine : String</text><rect fill="none" height="6" style="stroke:#C82930;stroke-width:1.0;" width="6" x="436.5" y="260.2422"/><text fill="#000000" font-family="sans-serif" font-size="14" lengthAdjust="spacing" textLength="102" x="448.5" y="266.5889">datePub : date</text><line style="stroke:#181818;stroke-width:0.5;" x1="429.5" x2="601.5" y1="273.8906" y2="273.8906"/><ellipse cx="439.5" cy="287.5391" fill="#84BE84" rx="3" ry="3" style="stroke:#038048;stroke-width:1.0;"/><text fill="#000000" font-family="sans-serif" font-size="14" lengthAdjust="spacing" textLength="148" x="448.5" y="290.8857">getDomaine() : String</text><ellipse cx="439.5" cy="303.8359" fill="#84BE84" rx="3" ry="3" style="stroke:#038048;stroke-width:1.0;"/><text fill="#000000" font-family="sans-serif" font-size="14" lengthAdjust="spacing" textLength="139" x="448.5" y="307.1826">getDatePub() : Date</text></g><!--reverse link Document to Livre--><g id="link_Document_Livre"><path codeLine="1" d="M213.58,161.37 C195.73,176.72 177.55,192.37 161.09,206.52 " fill="none" id="Document-backto-Livre" style="stroke:#181818;stroke-width:1.0;"/><polygon fill="none" points="208.95,156.12,228.68,148.38,218.08,166.73,208.95,156.12" style="stroke:#181818;stroke-width:1.0;"/></g><!--reverse link Document to DVD--><g id="link_Document_DVD"><path codeLine="2" d="M310.5,168.9 C310.5,181.79 310.5,194.68 310.5,206.52 " fill="none" id="Document-backto-DVD" style="stroke:#181818;stroke-width:1.0;"/><polygon fill="none" points="303.5,168.91,310.5,148.91,317.5,168.91,303.5,168.91" style="stroke:#181818;stroke-width:1.0;"/></g><!--reverse link Document to Magazine--><g id="link_Document_Magazine"><path codeLine="3" d="M404.93,161.6 C422.19,176.88 439.76,192.44 455.66,206.52 " fill="none" id="Document-backto-Magazine" style="stroke:#181818;stroke-width:1.0;"/><polygon fill="none" points="400.35,166.9,390.01,148.4,409.63,156.41,400.35,166.9" style="stroke:#181818;stroke-width:1.0;"/></g><!--SRC=[NP2xRiCm34LtVON618L-eCYIGjsQ8aY2xBBCAWGS6Q2f37dyUqqvVcxKqUMz96tjqnKYwytJ6Fs3Dm9bPyoUxOBiN71tZA2KhrpJwE7teOnB38dqfpuoOGpAC3B1v4tm1mJH2yF8483KHm3UviPgjHwrWa_IleI7tcEr7arU_JXv2Pab5WHx5_ea4fM14XdhE3VyVIkdViA_Ex7Wjtf8QSyY6MKYc0SKTKpDOZahghp5b7w9SaO7z_x4EQA-EYd76vQEOP-AbaZL9NIYvQLifynOwZRXWYLeZ-Gh-0S0]--></g></svg>