<?xml version="1.0" encoding="us-ascii" standalone="no"?><svg xmlns="http://www.w3.org/2000/svg" xmlns:xlink="http://www.w3.org/1999/xlink" contentStyleType="text/css" height="158px" preserveAspectRatio="none" style="width:186px;height:158px;background:#FFFFFF;" version="1.1" viewBox="0 0 186 158" width="186px" zoomAndPan="magnify"><defs/><g><!--class Forme--><g id="elem_Forme"><rect fill="#F1F1F1" height="42.2969" id="Forme" rx="2.5" ry="2.5" style="stroke:#181818;stroke-width:0.5;" width="50" x="72" y="7"/><text fill="#000000" font-family="sans-serif" font-size="14" lengthAdjust="spacing" textLength="44" x="75" y="24.9951">Forme</text><line style="stroke:#181818;stroke-width:0.5;" x1="73" x2="121" y1="33.2969" y2="33.2969"/><line style="stroke:#181818;stroke-width:0.5;" x1="73" x2="121" y1="41.2969" y2="41.2969"/></g><!--class Rectangle--><g id="elem_Rectangle"><rect fill="#F1F1F1" height="42.2969" id="Rectangle" rx="2.5" ry="2.5" style="stroke:#181818;stroke-width:0.5;" width="76" x="7" y="109.29"/><text fill="#000000" font-family="sans-serif" font-size="14" lengthAdjust="spacing" textLength="70" x="10" y="127.2851">Rectangle</text><line style="stroke:#181818;stroke-width:0.5;" x1="8" x2="82" y1="135.5869" y2="135.5869"/><line style="stroke:#181818;stroke-width:0.5;" x1="8" x2="82" y1="143.5869" y2="143.5869"/></g><!--class Triangle--><g id="elem_Triangle"><rect fill="#F1F1F1" height="42.2969" id="Triangle" rx="2.5" ry="2.5" style="stroke:#181818;stroke-width:0.5;" width="61" x="118.5" y="109.29"/><text fill="#000000" font-family="sans-serif" font-size="14" lengthAdjust="spacing" textLength="55" x="121.5" y="127.2851">Triangle</text><line style="stroke:#181818;stroke-width:0.5;" x1="119.5" x2="178.5" y1="135.5869" y2="135.5869"/><line style="stroke:#181818;stroke-width:0.5;" x1="119.5" x2="178.5" y1="143.5869" y2="143.5869"/></g><!--reverse link Forme to Rectangle--><g id="link_Forme_Rectangle"><path codeLine="1" d="M76.93,67.86 C69.69,81.81 61.81,97.02 55.69,108.83 " fill="none" id="Forme-backto-Rectangle" style="stroke:#181818;stroke-width:1.0;"/><polygon fill="none" points="71.06,64.97,86.48,50.44,83.49,71.42,71.06,64.97" style="stroke:#181818;stroke-width:1.0;"/></g><!--reverse link Forme to Triangle--><g id="link_Forme_Triangle"><path codeLine="2" d="M117.07,67.86 C124.31,81.81 132.19,97.02 138.31,108.83 " fill="none" id="Forme-backto-Triangle" style="stroke:#181818;stroke-width:1.0;"/><polygon fill="none" points="110.51,71.42,107.52,50.44,122.94,64.97,110.51,71.42" style="stroke:#181818;stroke-width:1.0;"/></g><!--SRC=[SyiloarLiAdHrLK8IaqkISnBpqdbSaC8XXHbGiIuCZ9JKXMICukISr81]--></g></svg>