<?xml version="1.0" encoding="UTF-8" standalone="no"?><svg xmlns="http://www.w3.org/2000/svg" xmlns:xlink="http://www.w3.org/1999/xlink" contentStyleType="text/css" height="238px" preserveAspectRatio="none" style="width:247px;height:238px;background:#FFFFFF;" version="1.1" viewBox="0 0 247 238" width="247px" zoomAndPan="magnify"><defs/><g><line style="stroke:#181818;stroke-width:0.5;stroke-dasharray:5.0,5.0;" x1="28" x2="28" y1="36.7999" y2="203.2"/><line style="stroke:#181818;stroke-width:0.5;stroke-dasharray:5.0,5.0;" x1="133.5" x2="133.5" y1="36.7999" y2="203.2"/><rect fill="#E2E2F0" height="30.7999" rx="2.5" ry="2.5" style="stroke:#181818;stroke-width:0.5;" width="46" x="5" y="5"/><text fill="#000000" font-family="sans-serif" font-size="14" lengthAdjust="spacing" textLength="32" x="12" y="25.9999">client</text><rect fill="#E2E2F0" height="30.7999" rx="2.5" ry="2.5" style="stroke:#181818;stroke-width:0.5;" width="46" x="5" y="202.2"/><text fill="#000000" font-family="sans-serif" font-size="14" lengthAdjust="spacing" textLength="32" x="12" y="223.1999">client</text><rect fill="#E2E2F0" height="30.7999" rx="2.5" ry="2.5" style="stroke:#181818;stroke-width:0.5;" width="135" x="66.5" y="5"/><text fill="#000000" font-family="sans-serif" font-size="14" lengthAdjust="spacing" textLength="121" x="73.5" y="25.9999">serveur_application</text><rect fill="#E2E2F0" height="30.7999" rx="2.5" ry="2.5" style="stroke:#181818;stroke-width:0.5;" width="135" x="66.5" y="202.2"/><text fill="#000000" font-family="sans-serif" font-size="14" lengthAdjust="spacing" textLength="121" x="73.5" y="223.1999">serveur_application</text><rect fill="#EEEEEE" height="3" style="stroke:#EEEEEE;stroke-width:1.0;" width="240" x="0" y="67.5999"/><line style="stroke:#000000;stroke-width:1.0;" x1="0" x2="240" y1="67.5999" y2="67.5999"/><line style="stroke:#000000;stroke-width:1.0;" x1="0" x2="240" y1="70.5999" y2="70.5999"/><rect fill="#EEEEEE" height="23.6" style="stroke:#000000;stroke-width:2.0;" width="216" x="12" y="56.7999"/><text fill="#000000" font-family="sans-serif" font-size="13" font-weight="bold" lengthAdjust="spacing" textLength="198" x="18" y="73.7999">Ouverture de la connexion TCP</text><polygon fill="#181818" points="122,108,132,112,122,116,126,112" style="stroke:#181818;stroke-width:1.0;"/><line style="stroke:#181818;stroke-width:1.0;stroke-dasharray:2.0,2.0;" x1="28" x2="128" y1="112" y2="112"/><text fill="#000000" font-family="sans-serif" font-size="13" lengthAdjust="spacing" textLength="80" x="35" y="107.4">requête HTTP</text><polygon fill="#181818" points="39,137.6,29,141.6,39,145.6,35,141.6" style="stroke:#181818;stroke-width:1.0;"/><line style="stroke:#181818;stroke-width:1.0;stroke-dasharray:2.0,2.0;" x1="33" x2="133" y1="141.6" y2="141.6"/><text fill="#000000" font-family="sans-serif" font-size="13" lengthAdjust="spacing" textLength="82" x="45" y="137">réponse HTTP</text><rect fill="#EEEEEE" height="3" style="stroke:#EEEEEE;stroke-width:1.0;" width="240" x="0" y="170.4"/><line style="stroke:#000000;stroke-width:1.0;" x1="0" x2="240" y1="170.4" y2="170.4"/><line style="stroke:#000000;stroke-width:1.0;" x1="0" x2="240" y1="173.4" y2="173.4"/><rect fill="#EEEEEE" height="23.6" style="stroke:#000000;stroke-width:2.0;" width="215" x="12.5" y="159.6"/><text fill="#000000" font-family="sans-serif" font-size="13" font-weight="bold" lengthAdjust="spacing" textLength="197" x="18.5" y="176.6">fermeture de la connexion TCP</text><!--MD5=[5669a18304cb20917d640898ccb24ea1]
@startuml
skinparam {
shadowing false
monochrome false
}
== Ouverture de la connexion TCP ==
client - -> serveur_application : requête HTTP
serveur_application - -> client : réponse HTTP
== fermeture de la connexion TCP ==
@enduml

PlantUML version 1.2022.5(Sat Apr 30 10:55:52 GMT 2022)
(GPL source distribution)
Java Runtime: OpenJDK Runtime Environment
JVM: OpenJDK 64-Bit Server VM
Default Encoding: UTF-8
Language: en
Country: US
--></g></svg>