<?xml version="1.0" encoding="UTF-8" standalone="no"?><svg xmlns="http://www.w3.org/2000/svg" xmlns:xlink="http://www.w3.org/1999/xlink" contentStyleType="text/css" height="234px" preserveAspectRatio="none" style="width:875px;height:234px;background:#FFFFFF;" version="1.1" viewBox="0 0 875 234" width="875px" zoomAndPan="magnify"><defs/><g><text fill="#888888" font-family="sans-serif" font-size="10" lengthAdjust="spacing" textLength="64" x="407" y="14.2822">some header</text><text fill="#000000" font-family="sans-serif" font-size="14" font-weight="bold" lengthAdjust="spacing" textLength="64" x="402" y="40.6357">Hackers</text><text fill="#000000" font-family="sans-serif" font-size="12" lengthAdjust="spacing" textLength="11" x="8" y="85.373">ip</text><text fill="#000000" font-family="sans-serif" font-size="12" lengthAdjust="spacing" textLength="108" x="70" y="85.373">103.125.234.210</text><line style="stroke:#000000;stroke-width:1.0;" x1="68" x2="191" y1="88.2031" y2="88.2031"/><line style="stroke:#000000;stroke-width:1.0;" x1="68" x2="68" y1="85.2031" y2="87.2031"/><line style="stroke:#000000;stroke-width:1.0;" x1="191" x2="191" y1="85.2031" y2="87.2031"/><rect fill="#EEEEEE" height="17.9688" rx="5" ry="5" style="stroke:#000000;stroke-width:2.5;" width="52" x="240.5" y="76.7344"/><text fill="#000000" font-family="sans-serif" font-size="12" lengthAdjust="spacing" textLength="45" x="244" y="89.873">Lookup</text><text fill="#000000" font-family="sans-serif" font-size="12" lengthAdjust="spacing" textLength="29" x="8" y="110.3418">Pays</text><text fill="#000000" font-family="sans-serif" font-size="12" lengthAdjust="spacing" textLength="35" x="70" y="110.3418">Japon</text><line style="stroke:#000000;stroke-width:1.0;" x1="68" x2="151" y1="113.1719" y2="113.1719"/><line style="stroke:#000000;stroke-width:1.0;" x1="68" x2="68" y1="110.1719" y2="112.1719"/><line style="stroke:#000000;stroke-width:1.0;" x1="151" x2="151" y1="110.1719" y2="112.1719"/><text fill="#000000" font-family="sans-serif" font-size="12" lengthAdjust="spacing" textLength="43" x="8" y="128.3105">Région</text><text fill="#000000" font-family="sans-serif" font-size="12" lengthAdjust="spacing" textLength="36" x="70" y="128.3105">Tokyo</text><line style="stroke:#000000;stroke-width:1.0;" x1="68" x2="135" y1="131.1406" y2="131.1406"/><line style="stroke:#000000;stroke-width:1.0;" x1="68" x2="68" y1="128.1406" y2="130.1406"/><line style="stroke:#000000;stroke-width:1.0;" x1="135" x2="135" y1="128.1406" y2="130.1406"/><text fill="#000000" font-family="sans-serif" font-size="12" lengthAdjust="spacing" textLength="25" x="8" y="146.2793">Ville</text><text fill="#000000" font-family="sans-serif" font-size="12" lengthAdjust="spacing" textLength="36" x="70" y="146.2793">Tokyo</text><line style="stroke:#000000;stroke-width:1.0;" x1="68" x2="135" y1="149.1094" y2="149.1094"/><line style="stroke:#000000;stroke-width:1.0;" x1="68" x2="68" y1="146.1094" y2="148.1094"/><line style="stroke:#000000;stroke-width:1.0;" x1="135" x2="135" y1="146.1094" y2="148.1094"/><rect fill="#EEEEEE" height="17.9688" rx="5" ry="5" style="stroke:#000000;stroke-width:2.5;" width="52" x="10.5" y="155.6094"/><text fill="#000000" font-family="sans-serif" font-size="12" lengthAdjust="spacing" textLength="42" x="15.5" y="168.748">Cancel</text><rect fill="#EEEEEE" height="17.9688" rx="5" ry="5" style="stroke:#000000;stroke-width:2.5;" width="164" x="69.5" y="155.6094"/><text fill="#000000" font-family="sans-serif" font-size="12" lengthAdjust="spacing" textLength="95" x="104" y="168.748">Ajouter/Modifer</text><line style="stroke:#000000;stroke-width:1.0;" x1="7" x2="66" y1="73.2344" y2="73.2344"/><line style="stroke:#000000;stroke-width:1.0;" x1="66" x2="237" y1="73.2344" y2="73.2344"/><line style="stroke:#000000;stroke-width:1.0;" x1="237" x2="296" y1="73.2344" y2="73.2344"/><line style="stroke:#000000;stroke-width:1.0;" x1="7" x2="66" y1="177.0781" y2="177.0781"/><line style="stroke:#000000;stroke-width:1.0;" x1="66" x2="237" y1="177.0781" y2="177.0781"/><line style="stroke:#000000;stroke-width:1.0;" x1="237" x2="296" y1="177.0781" y2="177.0781"/><line style="stroke:#000000;stroke-width:1.0;" x1="7" x2="7" y1="73.2344" y2="98.2031"/><line style="stroke:#000000;stroke-width:1.0;" x1="296" x2="296" y1="134.1406" y2="152.1094"/><line style="stroke:#000000;stroke-width:1.0;" x1="296" x2="296" y1="116.1719" y2="134.1406"/><line style="stroke:#000000;stroke-width:1.0;" x1="296" x2="296" y1="98.2031" y2="116.1719"/><line style="stroke:#000000;stroke-width:1.0;" x1="296" x2="296" y1="73.2344" y2="98.2031"/><line style="stroke:#000000;stroke-width:1.0;" x1="7" x2="7" y1="152.1094" y2="177.0781"/><line style="stroke:#000000;stroke-width:1.0;" x1="7" x2="7" y1="134.1406" y2="152.1094"/><line style="stroke:#000000;stroke-width:1.0;" x1="7" x2="7" y1="116.1719" y2="134.1406"/><line style="stroke:#000000;stroke-width:1.0;" x1="7" x2="7" y1="98.2031" y2="116.1719"/><line style="stroke:#000000;stroke-width:1.0;" x1="296" x2="296" y1="152.1094" y2="177.0781"/><line style="stroke:#000000;stroke-width:1.0;" x1="6" x2="297" y1="64.0859" y2="64.0859"/><line style="stroke:#000000;stroke-width:1.0;" x1="6" x2="297" y1="178.0781" y2="178.0781"/><line style="stroke:#000000;stroke-width:1.0;" x1="6" x2="6" y1="64.0859" y2="178.0781"/><line style="stroke:#000000;stroke-width:1.0;" x1="297" x2="297" y1="64.0859" y2="178.0781"/><rect fill="#FFFFFF" height="16.2969" style="stroke:#FFFFFF;stroke-width:1.0;" width="84" x="12" y="55.9375"/><text fill="#000000" font-family="sans-serif" font-size="14" font-weight="bold" lengthAdjust="spacing" textLength="84" x="12" y="68.9326">Formulaire</text><rect fill="#EEEEEE" height="16.9688" style="stroke:#000000;stroke-width:1.0;" width="79" x="303" y="71.9063"/><text fill="#000000" font-family="sans-serif" font-size="12" lengthAdjust="spacing" textLength="11" x="305" y="85.0449">IP</text><line style="stroke:#000000;stroke-width:1.0;" x1="371" x2="371" y1="71.9063" y2="88.875"/><polygon fill="#000000" points="374,77.9063,380,77.9063,377,83.875" style="stroke:#000000;stroke-width:1.0;"/><rect fill="#EEEEEE" height="26.9375" style="stroke:#000000;stroke-width:1.0;" width="78" x="303" y="88.875"/><text fill="#000000" font-family="sans-serif" font-size="12" lengthAdjust="spacing" textLength="44" x="307" y="100.0137">1.2.3.4</text><text fill="#000000" font-family="sans-serif" font-size="12" lengthAdjust="spacing" textLength="44" x="307" y="113.9824">1.2.3.4</text><rect fill="#EEEEEE" height="16.9688" style="stroke:#000000;stroke-width:1.0;" width="167" x="385" y="71.9063"/><text fill="#000000" font-family="sans-serif" font-size="12" lengthAdjust="spacing" textLength="29" x="387" y="85.0449">Pays</text><line style="stroke:#000000;stroke-width:1.0;" x1="541" x2="541" y1="71.9063" y2="88.875"/><polygon fill="#000000" points="544,77.9063,550,77.9063,547,83.875" style="stroke:#000000;stroke-width:1.0;"/><rect fill="#EEEEEE" height="26.9375" style="stroke:#000000;stroke-width:1.0;" width="166" x="385" y="88.875"/><text fill="#000000" font-family="sans-serif" font-size="12" lengthAdjust="spacing" textLength="39" x="389" y="100.0137">item 1</text><text fill="#000000" font-family="sans-serif" font-size="12" lengthAdjust="spacing" textLength="39" x="389" y="113.9824">item 2</text><rect fill="#EEEEEE" height="16.9688" style="stroke:#000000;stroke-width:1.0;" width="175" x="555" y="71.9063"/><text fill="#000000" font-family="sans-serif" font-size="12" lengthAdjust="spacing" textLength="25" x="557" y="85.0449">Ville</text><line style="stroke:#000000;stroke-width:1.0;" x1="719" x2="719" y1="71.9063" y2="88.875"/><polygon fill="#000000" points="722,77.9063,728,77.9063,725,83.875" style="stroke:#000000;stroke-width:1.0;"/><rect fill="#EEEEEE" height="26.9375" style="stroke:#000000;stroke-width:1.0;" width="174" x="555" y="88.875"/><text fill="#000000" font-family="sans-serif" font-size="12" lengthAdjust="spacing" textLength="39" x="559" y="100.0137">item 1</text><text fill="#000000" font-family="sans-serif" font-size="12" lengthAdjust="spacing" textLength="39" x="559" y="113.9824">item 2</text><rect fill="#EEEEEE" height="16.9688" style="stroke:#000000;stroke-width:1.0;" width="127" x="733" y="71.9063"/><text fill="#000000" font-family="sans-serif" font-size="12" lengthAdjust="spacing" textLength="69" x="735" y="85.0449">Opérations</text><line style="stroke:#000000;stroke-width:1.0;" x1="849" x2="849" y1="71.9063" y2="88.875"/><polygon fill="#000000" points="852,77.9063,858,77.9063,855,83.875" style="stroke:#000000;stroke-width:1.0;"/><rect fill="#EEEEEE" height="26.9375" style="stroke:#000000;stroke-width:1.0;" width="126" x="733" y="88.875"/><text fill="#000000" font-family="sans-serif" font-size="12" lengthAdjust="spacing" textLength="117" x="737" y="100.0137">modifier supprimer</text><text fill="#000000" font-family="sans-serif" font-size="12" lengthAdjust="spacing" textLength="117" x="737" y="113.9824">modifier supprimer</text><line style="stroke:#000000;stroke-width:1.0;" x1="301" x2="863" y1="62.9219" y2="62.9219"/><line style="stroke:#000000;stroke-width:1.0;" x1="301" x2="863" y1="91.875" y2="91.875"/><line style="stroke:#000000;stroke-width:1.0;" x1="301" x2="301" y1="62.9219" y2="91.875"/><line style="stroke:#000000;stroke-width:1.0;" x1="863" x2="863" y1="62.9219" y2="91.875"/><rect fill="#FFFFFF" height="13.9688" style="stroke:#FFFFFF;stroke-width:1.0;" width="35" x="307" y="55.9375"/><text fill="#000000" font-family="sans-serif" font-size="12" font-weight="bold" lengthAdjust="spacing" textLength="35" x="307" y="67.0762">Liste</text><rect fill="#EEEEEE" height="26.9375" style="stroke:#000000;stroke-width:1.0;" width="78" x="303" y="88.875"/><text fill="#000000" font-family="sans-serif" font-size="12" lengthAdjust="spacing" textLength="44" x="307" y="100.0137">1.2.3.4</text><text fill="#000000" font-family="sans-serif" font-size="12" lengthAdjust="spacing" textLength="44" x="307" y="113.9824">1.2.3.4</text><rect fill="#EEEEEE" height="26.9375" style="stroke:#000000;stroke-width:1.0;" width="166" x="385" y="88.875"/><text fill="#000000" font-family="sans-serif" font-size="12" lengthAdjust="spacing" textLength="39" x="389" y="100.0137">item 1</text><text fill="#000000" font-family="sans-serif" font-size="12" lengthAdjust="spacing" textLength="39" x="389" y="113.9824">item 2</text><rect fill="#EEEEEE" height="26.9375" style="stroke:#000000;stroke-width:1.0;" width="174" x="555" y="88.875"/><text fill="#000000" font-family="sans-serif" font-size="12" lengthAdjust="spacing" textLength="39" x="559" y="100.0137">item 1</text><text fill="#000000" font-family="sans-serif" font-size="12" lengthAdjust="spacing" textLength="39" x="559" y="113.9824">item 2</text><rect fill="#EEEEEE" height="26.9375" style="stroke:#000000;stroke-width:1.0;" width="126" x="733" y="88.875"/><text fill="#000000" font-family="sans-serif" font-size="12" lengthAdjust="spacing" textLength="117" x="737" y="100.0137">modifier supprimer</text><text fill="#000000" font-family="sans-serif" font-size="12" lengthAdjust="spacing" textLength="117" x="737" y="113.9824">modifier supprimer</text><text fill="#000000" font-family="sans-serif" font-size="14" lengthAdjust="spacing" textLength="215" x="326.5" y="209.3701">Maquette du composant Home</text><text fill="#888888" font-family="sans-serif" font-size="10" lengthAdjust="spacing" textLength="60" x="404" y="223.9541">some footer</text><!--SRC=[XLBXQjj03Fwlfn3vrJBgnKvMIbX7jsPjbzeqj6d-P35S7IMxnRxppdU1uEI1-XnziUcIcD8oc0wC-FH9-YJvehB2s4ha5kewFJ-_qgPmkP26m4gR4zw8R4ccWbyaPcImqWNXmVzf__TWhhLjilO-PAAqKYjCn1z7rXBE76QwA7KbbCKRPWBK7m1HbiYsmLROxWHXz2c8EjqW2jkjpIJMUkdAAPE6Obrvpa2KNDDRYz7xb-U5xy61aLwkzG4UovmdUezEBeNAA9yoFa7y-bixblanqJCvP-c8KzXkDr3Z5lcRVdxw4ilA4YVMuFkbY3-6EoV5C8Y2Jj1zTJYusRDsGjyQHwMb0iF6YTA6VL3wbjwmtvFlofTd8_nIgpslyDgbtxihIoCBCl_6VFuM_BiWDTlz133C-GoFIOmhlhhV8O_IZg8Wx1wD766VCcoVOdZMYxgzi8FNoGXz_1YEheSn7zgPZ4_A6pBooNbDnp0GAu7tJbdksiExajIWVzi0-5sjfD6g86LXC4vU2QVTas_IuWCPbeBZ1Feq5owtd97nC6hHmyVHrSaPn48jd5XmRL9mgRckMNFiuIy0]--></g></svg>